<?xml version="1.0" encoding="utf-8"?>
<!-- Generator: Adobe Illustrator 23.0.0, SVG Export Plug-In . SVG Version: 6.00 Build 0)  -->
<svg version="1.1" id="Layer_1" xmlns="http://www.w3.org/2000/svg" xmlns:xlink="http://www.w3.org/1999/xlink" x="0px" y="0px"
	 viewBox="0 0 480 480" style="enable-background:new 0 0 480 480;" xml:space="preserve">
<style type="text/css">
	.st0{fill:#CBE7C1;}
	.st1{fill:#3F8425;}
</style>
<g transform="scale(1) translate(0.0000152587890625,0)">
	<g transform="scale(1) translate(145.05004692077637,65.28912544250488)">
		<g>
			<path class="st0" d="M230.52-14.2l0.92,0.92C231.13-13.59,230.82-13.9,230.52-14.2z"/>
			<path class="st0" d="M111.68-57.64c0.92,0,1.38-0.15,1.53-0.31C112.29-57.79,111.52-57.79,111.68-57.64z"/>
			<path class="st0" d="M89.65-60.08c0.46,0,0.92,0,1.38,0.15C90.57-60.08,89.96-60.24,89.65-60.08z"/>
			<path class="st0" d="M230.52-14.2l-2.45-2.45C227.46-16.34,229.14-15.27,230.52-14.2z"/>
			<path class="st0" d="M273.03,22.66l0.61,0.76c0.31,0.15,0.76,0.15,1.22,0.15L273.03,22.66z"/>
			<path class="st0" d="M298.42,57.99c-0.46-0.92-1.99-0.46-2.75-0.31c0.76,0.15,1.53,0.61,1.99,1.38
				C297.96,58.75,298.27,58.45,298.42,57.99z"/>
			<path class="st0" d="M320.91,122.68l0.46,1.07C321.21,123.6,321.06,122.99,320.91,122.68z"/>
			<path class="st0" d="M251.62-0.44c-0.15,0.15-0.15,0.46-0.15,0.61C251.62,0.02,251.62-0.28,251.62-0.44z"/>
			<path class="st0" d="M325.49,174.38v0.61c0.31,0,0.61,0.15,0.92,0.15L325.49,174.38z"/>
			<path class="st0" d="M49.12-57.64c0.15,0,0.15,0,0.15,0C50.35-57.94,49.73-57.79,49.12-57.64z"/>
			<path class="st0" d="M-133.95,224.24c0.46-4.44,3.36,6.27,3.52-0.15C-130.89,224.7-134.1,218.89-133.95,224.24z"/>
			<path class="st0" d="M-36.37-20.47c0.31,0.15,0.76,0.15,1.22,0C-35.3-20.47-35.61-20.63-36.37-20.47z"/>
			<path class="st0" d="M26.79-48.61l-1.68,0.31C25.88-48.31,26.33-48.46,26.79-48.61z"/>
			<path class="st0" d="M-63.75,4.3c-0.46,0.31-0.76,0.46-1.22,1.22c0.15,0,0.31,0,0.46-0.15C-64.51,5.07-64.21,4.61-63.75,4.3z"/>
			<path class="st0" d="M-88.22,31.38c0.15-0.15,0.46-0.31,0.61-0.31c0.15-0.31,0.46-0.61,0.61-0.92L-88.22,31.38z"/>
			<path class="st0" d="M51.72-57.48c0.46-0.15,0.92-0.31,1.38-0.46C52.64-57.64,52.18-57.48,51.72-57.48z"/>
			<path class="st0" d="M287.56,306.22c0.15-0.15,0.46-0.46,0.76-0.61C288.02,305.76,287.72,306.06,287.56,306.22z"/>
			<path class="st0" d="M327.63,174.53c-0.15,1.53-0.61,3.98-1.53,3.98l-0.31-3.52c-0.15,0-0.31-0.15-0.46-0.15
				c0-0.15,0-0.31,0-0.61c0-13.76-1.22-27.38-3.52-40.53l0.46,0.31l-0.61-0.92c-0.31-1.84-0.61-3.52-1.07-5.35
				c0.31,0.15,0.76,0.46,1.07,1.53c0.46-3.98-1.53-3.21-1.07-6.58c0.15-0.46,0.31-0.31,0.46,0l-1.53-3.52
				c0.61,0.61,1.53-1.07,1.68,1.38c0-1.68-0.31-3.21-0.76-4.59c-0.46-1.38-0.92-2.45-1.53-3.52c-0.92-1.99-1.68-3.52-1.22-5.05
				l0.31,0.46c-0.76-2.14-1.38-3.36-1.84-3.82s-0.61-0.46-0.92-0.31s-0.46,0.31-0.92,0.15c-0.46-1.38-0.92-2.75-1.38-4.28l1.68-3.98
				l-1.99-0.31c-0.31-0.92-0.92-2.75-0.15-2.6c-2.45-2.91-0.46,0.76-2.29-0.76c-0.15-2.45-1.38-5.35-2.6-7.95
				c-1.22-2.45-1.99-4.59-0.92-5.66c-1.84-0.92,0.92,4.44-1.99,0.31c1.07-1.22,0.31-2.6-0.61-3.98c-1.07-1.53-2.6-3.06-2.91-5.35
				c1.99,0.46,3.06,4.44,2.29,0c-1.68-0.61-2.6-2.45-3.21-4.59s-1.38-4.44-2.45-5.96c-0.92,0.46-2.14-1.22-3.52-3.52
				c-1.38-2.29-3.21-5.2-5.05-7.65c0.92-0.15-5.35-10.09-8.26-14.99l0.31-0.15c-1.22,0.15-2.6-0.92-3.98-2.45
				c-1.53-1.53-3.06-3.52-4.59-4.89c1.07-0.61,1.99-0.46,3.82,0.92c-0.76-1.07-1.68-1.99-2.6-3.06c-1.07-0.31-2.14-0.92-4.13-2.75
				l1.84-0.31c-0.92-0.92-1.84-1.99-2.91-2.91s-2.14-1.84-3.21-2.75c-1.07-0.92-2.14-1.99-3.36-3.06c-0.61-0.61-1.07-1.07-1.53-1.84
				c-0.61-0.61-1.07-1.22-1.68-1.99c-0.92,0.61-0.15,3.36-1.22,3.82c-0.92-0.92-1.68-1.68-2.6-2.6c0.46-0.31,1.07-0.31,1.84,0.31
				c-0.46-0.31-1.99-1.07-2.75-2.14l3.06,1.07c-1.84-2.6-1.99-0.31-3.67-2.14c0.76-0.76-0.76-1.84,0.15-2.29
				c0.46,0.31,1.22,1.84,2.29,2.14c-1.84-2.14-3.82-4.89-4.28-6.27c-0.31,0.61-1.07,1.07-2.6-0.15c-4.13-3.36-0.46-2.14-2.45-4.74
				c-1.38-0.31-3.67-3.06-4.74-1.68c-1.22-0.92-0.92-1.68-1.07-2.45c-1.38-0.61-3.82-2.6-5.96-3.82s-3.67-1.99-3.06-0.46l0.46,0.46
				c-0.15,0-0.31-0.15-0.46-0.15c-2.14-0.92-3.98-2.14-5.81-3.52c-1.84-1.38-3.82-2.6-5.66-3.98c-3.67-2.91-7.49-5.51-11.47-7.49
				l0.31-0.46c-2.45-1.07-5.2-2.29-7.65-3.36c-2.6-1.07-4.89-2.14-6.88-2.29c-1.38-0.61-2.91-2.45-1.99-2.75
				c-3.98-1.22-4.44-1.07-9.64-3.98c4.13,0.61-0.92-1.38,4.13,0.92c-4.74-2.45-5.51-3.67-11.47-4.28c2.29-0.76-3.21-3.06-5.81-3.36
				l3.21,2.14c-2.75-0.76-5.05-1.68-7.34-2.6l1.84-1.38c-2.45-1.38-4.89-2.14-7.34-2.6s-4.89-0.76-7.19-0.92
				c-2.29-0.15-4.59-0.31-6.73-0.76c-1.07-0.31-2.14-0.61-3.06-0.92c-1.07-0.46-1.99-0.92-2.91-1.53c-3.06,0.76,5.66,1.99,2.75,3.06
				c-4.89-1.07-9.48-4.74-11.16-5.05c-3.36-0.92-5.05-0.46-6.73,0c-0.92,0.31-1.68,0.46-2.75,0.61s-2.45,0-4.13-0.31
				c0.92,0.76,1.53,2.6-3.82,2.75c-4.89-0.61-5.96-3.21-2.75-3.52c1.22,0,1.84,0.31,1.68,0.46c1.68-0.15,3.82-0.31,1.84-1.07
				l-0.76,0.61c-1.22-0.46-3.52-0.76-5.35-1.07s-3.21-0.61-2.29-1.07c-3.82,0.61-1.68,1.07,1.07,1.53
				c-3.21-0.61-5.66-0.61-8.26-0.61c-1.22,0-2.6,0-3.98,0c-1.38,0-2.91,0-4.59-0.15c1.07,0.31,1.99,1.07,1.07,1.07
				c-4.89-0.31-5.96,0-6.58,0.46c-0.61,0.46-0.92,1.07-4.13,1.53c-3.82-0.76,1.22-2.6-5.35-1.22c-4.13-0.46-1.07-1.68,0.61-2.45
				c-1.53,0.46-2.91,0.61-4.28,0.76c-1.38,0.15-2.75,0.15-3.98,0.15c-2.6-0.15-4.74-0.46-6.58-0.31l3.06-0.92
				c-1.84,0.61-3.52,0.76-5.05,0.92c0.61,0.31,1.38,0.76,1.99,1.07c-1.84,0-3.52,0.31-3.52-0.31c-1.84,1.22,1.84,1.99-1.68,3.82
				c-2.6-0.15-7.34,1.99-8.56,0.46c7.19-0.76,0.31-1.53,3.82-2.75c-0.92,0.15-1.99,0.31-3.21,0.46c-0.31-0.15,0.15-0.46,0.61-0.61
				c-7.8,0.15-3.06,2.75-10.55,4.44c0.76-1.22-2.29-1.38-3.36-0.92c3.06-0.92,1.84,1.22-0.76,2.75c-5.05,0.61-5.05,1.99-7.65,2.6
				l2.91-0.46c-0.31,0.61-1.07,1.07-2.14,1.53s-2.45,1.07-4.13,1.68c-0.15-0.15,0-0.46,0.31-0.61c-1.38,0.76-3.06,0.92-5.05,1.22
				c-2.45,0.15-5.05,0.61-7.34,2.14c-2.6,0.31-0.92-1.68-3.06-1.22c-5.2,3.36-6.58,1.22-12.08,4.89c2.29,0.46,2.45,0-1.07,3.06
				l9.18-5.2l-5.35,4.59c2.91-1.22,5.66-3.52,7.49-3.98c-2.47,2.14-2.32,1.84-0.48,2.3c-2.29,0-4.13,1.07-5.96,2.29
				c-1.84,1.22-3.67,2.6-6.27,3.06l-1.38-3.06c-3.67,1.07-6.58,2.91-9.48,5.05c-1.38,1.07-2.91,2.29-4.59,3.52
				c-1.68,1.22-3.52,2.29-5.66,3.36c0.92-0.46,1.99-0.76,2.91-1.22c-0.46,1.84-4.89,3.36-7.34,5.51c-0.31-1.07-2.29-0.31-3.82-0.15
				c0.61,0.61-5.81,4.13-5.2,6.42c-1.38,0.46-2.91,0.92-4.44,1.38c-6.58,4.44-5.05,7.95-11.01,12.54c0.92-2.45-2.14-0.76,1.07-4.74
				c-1.99,1.68-3.82,2.91-3.21,3.52c-0.76,0.15-1.84,1.68-3.06,3.06c-1.07,1.53-2.29,3.06-3.52,3.52c-0.46,1.07,0.15,2.14-1.99,3.98
				c-0.31,0-0.31-0.46-0.31-0.46c0.15,0.15-0.46,1.07-0.76,1.84c-0.31,0.76-0.46,1.38,0.92,0.92c-1.99,0.76-3.82,2.14-5.66,3.82
				c-0.92,0.76-1.84,1.68-2.75,2.75c-0.92,0.92-1.68,1.99-2.6,3.06c-1.68,1.99-3.36,3.98-4.89,5.81c-1.53,1.84-3.06,3.21-4.74,4.13
				c-0.76,1.07-1.53,2.29-2.45,3.52c-0.76,1.22-1.53,2.45-2.45,3.67c-1.68,2.45-3.21,4.89-4.59,7.04c-0.15-0.46-0.46-0.31,0.15-1.07
				c-4.59,5.2,0.46,5.2-4.74,11.16c-1.84,1.22-1.53,0.31-0.92-0.92c0.46-1.07,1.38-2.29,0.31-1.38c-1.84-0.46-2.91,1.68-4.13,4.28
				c-1.07,2.6-2.45,5.81-4.59,7.65l0.46-1.22c-2.91,3.06-3.36,9.33-6.12,15.29c0,0-0.15-0.46-0.46-0.31c0,2.45-0.92,5.66-1.68,9.02
				s-1.99,6.88-2.75,9.94c-0.76-2.29,0.15-2.91-1.53-2.29c-0.76,2.75,2.45,0,1.07,5.51c-1.38,1.53-3.36,5.05-4.89,5.2
				c0.46-1.68,1.07-3.36,1.53-5.05c-1.38,0.92-1.99,2.6-2.29,4.28c-0.31,1.68-0.31,3.52-0.92,4.89l-0.76-0.61
				c-1.99,7.95,0.31,8.72-1.84,17.13l0.92-0.76c0.46,2.6,0.15,3.52-0.46,4.44s-1.22,1.84-0.76,4.28l-2.45,1.07c0,0.76,0,1.84,0,3.21
				c0,1.22,0.15,2.75,0.15,4.28c0.15,3.06,0.15,6.42,0.15,9.33c-0.76-1.68-1.07-4.13-1.22-6.73c-0.15-2.6-0.46-5.35-0.46-7.49
				c-0.46,3.06-1.22,10.71-0.31,12.39c0-1.22-0.46-2.91,0.15-4.13c1.22,3.98,1.84,9.02,1.22,15.29c-2.14-0.61-2.6,3.36-2.91,8.11
				c-0.46,4.74-0.15,10.25-1.84,12.54c0.31,1.38,0.46,2.75,0.61,4.13s0.31,2.75,0.46,4.13c0.31,2.75,0.31,5.66,0.46,8.41
				c0.15,2.91,0.46,5.81,0.61,8.87c0.15,1.53,0.31,3.06,0.46,4.59c0.31,1.53,0.46,3.06,0.76,4.74c2.45-5.2,0.76,3.67,3.98,2.29
				c0.76,2.91,1.07,3.98,0.92,4.28v-0.61c0,0.31,0,0.46,0,0.61l0,0c0,3.06,0,6.27,0,9.33c-0.15,1.22-0.61,0.46-0.92-0.31
				c-0.31-0.92-0.76-1.99-1.07-1.84c0.61,3.21,0.61,3.98,0.15,4.59c-0.31,0.46-0.76,0.76-0.61,3.06c0.92-1.22,2.29,1.68,2.91,5.51
				v-5.66c1.07,2.14,1.53,3.67,1.84,5.05c0.15,1.38,0.31,2.29,0.15,3.36c0,2.14-0.15,4.28,2.29,8.41l-1.99-2.45
				c2.29,5.2,6.58,17.59,11.16,20.65c0,0.92-0.46,2.29-1.53,0.61c0.61,1.38,1.07,2.75,1.84,3.98c0.76,1.38,1.53,2.6,2.29,3.98
				c1.68,2.6,3.21,5.2,5.05,7.65c1.84,2.45,3.36,4.89,4.89,7.19s2.75,4.44,3.67,6.58l-1.22-0.31c1.38,1.68,3.21,2.29,4.13,4.89
				c-0.31,0.15-1.22-0.15-0.61,0.61c0.92,0.76,4.44,3.82,5.81,6.42l-2.14-1.38c1.38,2.45,2.91,4.44,4.44,6.12s3.06,3.06,4.74,4.44
				c3.21,2.6,6.42,4.74,9.79,8.11c-0.92,0.76,0,2.91,1.38,5.35c1.53,2.45,3.52,5.05,5.05,6.58l-0.31,0.15
				c2.29,2.29,4.59,4.28,6.88,6.12c2.29,1.68,4.59,3.36,6.88,4.89c2.29,1.53,4.59,2.91,7.04,4.28c2.45,1.38,4.74,2.91,7.34,4.44
				c1.07,1.68,2.91,3.36,5.2,5.35c2.29,1.84,5.05,3.67,7.95,5.66c2.91,1.99,5.96,3.67,9.02,5.51c2.91,1.84,5.81,3.52,8.41,5.2
				c-1.38-1.22,1.22-1.53,3.21-0.92c2.29,1.84,7.8,1.68,6.42,3.67l-0.92-0.46c1.07,2.91,6.58,4.89,10.71,6.58l1.84-2.45
				c2.29,2.14,5.35,3.82,8.72,5.05c3.36,1.22,6.88,2.29,10.4,3.06s6.73,1.53,9.48,2.14c2.75,0.76,5.05,1.53,6.42,2.91
				c2.91,0,6.42,0.61,9.33,0.31l-0.46,1.53c1.99,0.46,3.67,0.76,5.2,1.22c1.53,0.31,3.21,0.61,4.74,0.76
				c1.53,0.31,3.21,0.46,5.05,0.61c0.92,0.15,1.99,0.15,2.91,0.31c1.07,0,2.14,0.15,3.36,0.15l-2.14,0.92
				c5.51,0.46,7.34-3.98,12.39-3.82l1.38,2.45c4.74,0.15,9.64,0.76,14.53,0.76c2.45,0,4.89,0.15,7.19-0.15
				c2.45-0.31,4.74-0.76,7.04-1.53c-0.15,0.31-0.31,1.07-1.84,1.22c4.44,0,16.82-0.31,15.75-3.06c1.38,1.53,9.94-1.84,14.53-3.67
				l-0.46,1.68c3.82-2.91,3.82-3.52,9.64-5.51c1.22-0.15,1.53,0.61,0.31,0.92c3.98-0.46,2.75-2.45,8.26-3.06l-1.84,1.53
				c4.74-1.22,4.28-1.53,6.42-3.52c2.75-1.53,8.87-2.6,10.09-1.53c0.31-1.07,2.45-3.21,5.2-3.82c0.61,0.31-0.31,1.07-0.76,1.38
				c1.99-0.46,3.67-1.22,5.2-1.84c1.53-0.76,2.75-1.53,3.82-2.29c2.29-1.53,4.44-2.75,7.34-3.36c0.31,0.46,0.76,0.46,1.22,0.46
				c-5.51,2.6-9.94,4.44-10.4,4.59c0.61,1.38,5.51-0.61,2.45,2.91c1.68-1.38,3.98-3.36,6.58-5.2c2.45-1.84,5.05-3.67,7.49-4.59
				c0.31,0,0.61,0,0.92,0.15l-0.46,0.46c1.07-0.46,1.99-1.07,2.75-1.68c1.53-0.61,2.6-0.92,3.98-1.84c1.07,0.76,5.66-2.45,7.95-3.82
				c-1.07-1.22,1.99-2.91-1.22-2.29c0.15,0-0.61,0.61-1.84,1.38c-0.31,0.31-0.76,0.46-0.92,0.76c0,0,0-0.15,0.15-0.15
				c-1.53,0.92-3.36,1.99-5.66,3.36c1.38-1.68,2.91-3.36,5.96-4.13c0.61-1.53,1.38-3.21,1.68-4.13c2.14,0,4.74-0.76,7.19-1.38
				c2.45-0.61,4.28-1.38,5.2-1.07c1.53-1.38,3.21-2.75,5.05-4.13s3.36-3.06,5.05-4.44c1.53-1.53,3.06-3.06,4.28-4.44
				c1.22-1.53,1.99-3.06,2.45-4.44c1.53-1.84,2.6-1.07,3.52-1.22c-0.76,1.07-1.99,2.14-2.29,2.91c0.76-0.92,1.68-1.99,2.75-2.91
				c0.61-0.46,1.07-1.07,1.68-1.68c0.46-0.61,1.07-1.07,1.53-1.68c1.99-2.14,3.52-4.28,3.21-5.35c4.74-3.36-0.92,3.67,4.44-2.14
				l-0.31,1.22c3.21-2.29,5.81-4.74,7.95-7.49c1.99-2.75,3.67-5.66,5.35-8.41c1.68-2.91,3.21-5.96,5.2-8.72
				c1.99-2.6,3.98-5.51,7.04-8.11c-0.46,0.31-0.76,0.61-1.07,0.61c0.76-0.92,1.68-1.84,2.29-2.91c0.76-1.07,1.38-1.99,2.14-3.06
				c1.38-1.99,2.75-4.13,4.13-6.27c1.22-2.14,2.45-4.44,3.67-6.58c0.61-1.07,1.22-2.14,1.84-3.36l1.68-3.36
				c1.07-2.29,2.14-4.59,3.21-6.88c1.07-2.29,1.99-4.59,3.06-6.88c0.61-1.07,1.07-2.29,1.68-3.36c0.46-1.07,1.07-2.29,1.53-3.36
				c1.07-2.29,2.29-4.44,3.52-6.58c2.29-5.05,1.22-6.12,1.38-9.48l1.99-0.61c0-1.99-0.15-4.13-0.31-6.12
				c0.15-1.99,0.76-3.82,1.53-5.51c0.76-1.68,1.53-3.36,2.45-5.2c0.92-1.68,1.68-3.52,2.29-5.66c0.61-2.14,0.76-4.44,0.61-7.04
				l-1.38,1.07c0.46-1.84,0.76-4.74,1.07-7.04s0.61-4.13,1.22-3.82c-0.15-0.46-1.07-1.38-0.31-2.75h0.92c0-1.53-0.15-3.06-0.15-4.59
				l-0.46-4.59c0.61-3.52,1.53-3.21,2.29-3.21c0.46,0,0.76-0.15,1.22-0.92c0.31-0.76,0.76-2.14,0.76-4.74
				C330.23,180.19,328.25,173,327.63,174.53z M215.53,376.88c0-0.15,0-0.15,0.15-0.31c0,0.31,0,0.76-0.15,1.07
				c-1.38,1.07-2.14,1.07-2.45,0.92C213.69,378.25,214.46,377.64,215.53,376.88z M319.07,121.92c-0.15-0.61-0.31-1.22-0.46-1.84
				c0.15,0.46,0.31,0.92,0.61,1.38C319.22,121.61,319.07,121.77,319.07,121.92z"/>
			<path class="st0" d="M25.11-47.24c-0.31,0.31-0.61,0.61-1.07,0.76C24.81-46.93,25.88-47.24,25.11-47.24z"/>
			<path class="st0" d="M217.06,374.28c0.15-0.15,0.31-0.31,0.61-0.46c-0.31,0.15-0.76,0.15-1.07,0.31
				c-0.15,0.31-0.15,0.46-0.31,0.76C216.6,374.74,216.9,374.43,217.06,374.28z"/>
			<path class="st0" d="M231.43-13.28c0.15,0.15,0.15,0.31,0.31,0.46c-0.15-0.15,0-0.15-0.15-0.31L231.43-13.28z"/>
			<path class="st0" d="M313.11,89.8c-1.53-8.72-0.61,2.14-3.67-6.27c0.76,2.14,1.38,4.28,2.14,6.42
				C311.58,88.73,311.88,86.89,313.11,89.8z"/>
			<path class="st0" d="M302.25,63.65c-1.53-1.84-1.99-2.14-1.22,0.46C303.01,67.32,301.79,63.65,302.25,63.65z"/>
			<path class="st0" d="M191.06-37.91l0.92-1.22C189.37-40.05,191.82-38.67,191.06-37.91z"/>
			<polygon class="st0" points="149,-55.19 144.25,-55.8 147.62,-55.34 			"/>
			<path class="st0" d="M-85.16,25.26l1.99,0.46C-82.26,24.19-83.63,22.5-85.16,25.26z"/>
			<path class="st0" d="M-131.66,125.44c-1.22,0.92-2.29,3.98-1.84,5.96C-132.88,129.11-131.66,126.81-131.66,125.44z"/>
			<path class="st0" d="M12.26,395.54c1.38,0.31,2.75,0.76,4.13,1.07c-0.61-0.31-1.22-0.46-1.84-0.76L12.26,395.54z"/>
		</g>
	</g>
	<g transform="scale(1) translate(0,0)">
		<g transform="scale(1.8254837938731978) translate(148.09960839487613,124.59311825561524)">
			<path class="st1" d="M54.67,8.76l0.37,0.4l0,0c-0.25,0.62-0.53,1.18-0.83,1.68l0,0l0,0c-0.32,0.5-0.86,0.81-1.6,0.94l0,0l0,0
				c0.12,0.5,0.19,1.16,0.19,1.98l0,0l0,0c0,0.8,0.31,1.46,0.94,1.98l0,0l0,0c-0.37,0.75-0.53,1.31-0.48,1.68l0,0l0,0
				c0.07,0.37-0.08,0.81-0.45,1.31l0,0l0,0c0.12,1.37,0.56,2.38,1.31,3.02l0,0l0,0c0.12,0.62,0.06,1.09-0.19,1.39l0,0l0,0
				c-0.25,0.32-0.5,0.73-0.75,1.23l0,0l0,0c-0.37,2.39-0.53,4.23-0.48,5.53l0,0l0,0c0.07,1.32-0.08,2.67-0.45,4.06l0,0l0,0
				c-0.25,0.62-0.5,1.21-0.75,1.76l0,0l0,0c-0.25,0.57-0.44,1.17-0.56,1.79l0,0l0,0c0.5,0.87,0.65,1.37,0.45,1.5l0,0l0,0
				c-0.18,0.14-0.2,0.34-0.08,0.59l0,0l0,0c-1.39,0.87-1.99,1.34-1.79,1.39l0,0l0,0c0.18,0.07,0.14,0.23-0.11,0.48l0,0l0,0
				c-1.37,0.62-2.43,1.5-3.18,2.62l0,0l0,0c-0.75,1.14-1.82,2.02-3.21,2.65l0,0l0,0c-1.87,1.75-3.78,3.44-5.72,5.08l0,0l0,0
				c-1.94,1.62-4.11,3.12-6.49,4.49l0,0l0,0c-0.12,0.5-0.44,0.75-0.94,0.75l0,0l0,0c-0.5,0-0.81,0.32-0.94,0.96l0,0l0,0
				c-1.64,0.37-3.39,0.9-5.26,1.58l0,0l0,0c-1.87,0.69-3.81,1.29-5.83,1.79l0,0l0,0c-2,0.5-4.04,0.85-6.12,1.04l0,0l0,0
				c-2.07,0.18-4.04-0.04-5.91-0.67l0,0l0,0c-3.14,0.37-6.46,0.53-9.97,0.48l0,0l0,0c-3.51-0.07-6.95-0.23-10.32-0.48l0,0l0,0
				c-0.64-0.12-1.34-0.31-2.08-0.56l0,0l0,0c-0.75-0.25-1.43-0.31-2.06-0.19l0,0l0,0c-0.87,0.12-1.62,0.16-2.24,0.11l0,0l0,0
				c-0.64-0.07-1.46-0.17-2.46-0.29l0,0l0,0c-1.37-0.12-2.84-0.03-4.41,0.29l0,0l0,0c-1.57,0.3-3.16,0.45-4.78,0.45l0,0l0,0
				c-0.64-0.12-1.21-0.25-1.71-0.37l0,0l0,0c-0.5-0.12-1-0.19-1.5-0.19l0,0l0,0c-1,0.12-1.84,0.37-2.54,0.75l0,0l0,0
				c-0.68,0.37-1.52,0.12-2.54-0.75l0,0l0,0c-2,1-4.4,1.37-7.22,1.12l0,0l0,0c-2.83-0.25-5.56-0.12-8.18,0.37l0,0l0,0
				c-0.62-0.12-1.16-0.21-1.6-0.27l0,0l0,0c-0.45-0.07-0.92,0.02-1.42,0.27l0,0l0,0c-0.37-0.5-0.78-0.71-1.23-0.64l0,0l0,0
				c-0.43,0.05-0.89-0.04-1.39-0.29l0,0l0,0c-1,0.12-2.13,0.35-3.39,0.67l0,0l0,0c-1.25,0.3-2.18,0.39-2.81,0.27l0,0l0,0
				c-0.87,0-1.41-0.03-1.6-0.08l0,0l0,0c-0.2-0.07-0.36-0.11-0.48-0.11l0,0l0,0c-1.12,0.25-2.12,0.66-2.99,1.23l0,0l0,0
				c-0.87,0.57-1.82,0.79-2.83,0.67l0,0l0,0c-1-0.25-2.06-0.53-3.18-0.86l0,0l0,0c-1.12-0.32-2.19,0.03-3.21,1.04l0,0l0,0
				c-0.37-0.37-0.96-0.56-1.76-0.56l0,0l0,0c-0.82,0-1.67-0.04-2.54-0.11l0,0l0,0c-0.89-0.05-1.67-0.2-2.35-0.45l0,0l0,0
				c-0.69-0.27-1.04-0.78-1.04-1.52l0,0l0,0c0.12-1.12,0.91-1.81,2.35-2.06l0,0l0,0c1.44-0.25,2.6-0.25,3.47,0l0,0l0,0
				c0.62,0,1.47,0,2.54,0l0,0l0,0c1.07,0,1.98-0.12,2.73-0.37l0,0l0,0c1.37-0.25,2.75-0.19,4.14,0.19l0,0l0,0
				c1.37,0.37,2.43,0.44,3.18,0.19l0,0l0,0c1.37-0.37,2.32-1.03,2.83-1.98l0,0l0,0c0.5-0.94,1.18-1.79,2.06-2.54l0,0l0,0
				c0-0.75,0.19-1.43,0.56-2.06l0,0l0,0c0.37-0.62,0.72-1.22,1.04-1.79l0,0l0,0c0.3-0.57,0.49-1.19,0.56-1.87l0,0l0,0
				c0.05-0.69-0.17-1.48-0.67-2.35l0,0l0,0c0.75-1.39,1-2.86,0.75-4.41l0,0l0,0c-0.25-1.57-0.37-3.23-0.37-5l0,0l0,0
				c-1.12-0.25-1.72-1-1.79-2.24l0,0l0,0c-0.05-1.25,0.61-2,1.98-2.24l0,0l0,0c0.25-1.02,0.29-2.02,0.11-3.02l0,0l0,0
				c-0.2-1-0.23-2-0.11-2.99l0,0l0,0c-0.62-0.27-1.06-0.68-1.31-1.23l0,0l0,0c-0.25-0.57-0.5-1.1-0.75-1.6l0,0l0,0
				c0.12-0.62,0.41-1.1,0.86-1.42l0,0l0,0c0.43-0.3,0.77-0.77,1.02-1.39l0,0l0,0c-0.25-0.77-0.71-1.02-1.39-0.78l0,0l0,0
				c-0.69,0.27-1.23,0.53-1.6,0.78l0,0l0,0c-0.25-0.25-0.53-0.51-0.86-0.78l0,0l0,0c-0.3-0.25-0.39-0.69-0.27-1.31l0,0l0,0
				c0.75-0.75,1.43-1.43,2.06-2.06l0,0l0,0c0.62-0.62,1.25-1.25,1.87-1.87l0,0l0,0c0.12-1.39,0.29-2.62,0.48-3.69l0,0l0,0
				c0.18-1.05,0.08-2.08-0.29-3.1l0,0l0,0c0.62-1.87,0.69-3.43,0.19-4.68l0,0l0,0c-0.25-0.37-0.62-0.66-1.12-0.86l0,0l0,0
				c-0.5-0.2-0.87-0.48-1.12-0.86l0,0l0,0c0.25-0.75,0.44-1.46,0.56-2.14l0,0l0,0c0.12-0.69,0.56-1.23,1.31-1.6l0,0l0,0
				c0.12-1.64,0.25-3.52,0.37-5.64l0,0l0,0c0.12-2.14-0.25-4.02-1.12-5.64l0,0l0,0c0.25-2.01,0.56-3.58,0.94-4.7l0,0l0,0
				c0.37-1.12,0.62-2.24,0.75-3.37l0,0l0,0c-0.12-0.39-0.4-0.65-0.83-0.78l0,0l0,0c-0.45-0.12-0.79-0.31-1.04-0.56l0,0l0,0
				c0-0.62,0.19-1.21,0.56-1.76l0,0l0,0c0.37-0.57,0.78-1.14,1.23-1.71l0,0l0,0c0.43-0.55,0.71-1.18,0.86-1.87l0,0l0,0
				c0.12-0.69-0.13-1.48-0.78-2.35l0,0l0,0c-0.25-2-0.21-3.34,0.11-4.04l0,0l0,0c0.3-0.69,0.78-1.35,1.42-1.98l0,0l0,0
				c-0.25-1-0.66-1.5-1.23-1.5l0,0l0,0c-0.57,0-0.86-0.44-0.86-1.31l0,0l0,0c0-0.64,0.35-1.18,1.04-1.6l0,0l0,0
				c0.69-0.45,1.23-0.98,1.6-1.6l0,0l0,0c0.25-0.37,0.31-0.91,0.19-1.6l0,0l0,0c-0.12-0.68-0.25-1.34-0.37-1.98l0,0l0,0
				c0.62-1.87,0.81-3.78,0.56-5.72l0,0l0,0c-0.25-1.94-0.56-3.91-0.94-5.91l0,0l0,0c-0.64,0.12-1.21,0.37-1.71,0.75l0,0l0,0
				c-0.5,0.37-1,0.71-1.5,1.02l0,0l0,0c-0.5,0.32-1,0.54-1.5,0.67l0,0l0,0c-0.5,0.12-1.06,0-1.68-0.37l0,0l0,0
				c0.12-1.12,0.62-1.94,1.5-2.46l0,0l0,0c0.87-0.5,1.75-1.02,2.62-1.58l0,0l0,0c0.87-0.57,1.57-1.23,2.08-1.98l0,0l0,0
				c0.5-0.75,0.44-1.88-0.19-3.39l0,0l0,0c-0.77,0.62-1.49,1.19-2.16,1.71l0,0l0,0c-0.69,0.5-1.73,0.62-3.1,0.37l0,0l0,0
				c0.25-1.51,0.94-2.55,2.06-3.1l0,0l0,0c1.12-0.57,2.19-1.17,3.21-1.79l0,0l0,0c-0.12-0.62-0.29-1.25-0.48-1.87l0,0l0,0
				c-0.2-0.64-0.16-1.27,0.11-1.9l0,0l0,0c-1.39-1.12-1.84-1.81-1.34-2.06l0,0l0,0c0.5-0.25,0.69-0.69,0.56-1.31l0,0l0,0
				c-2-1.64-4.06-2.58-6.2-2.83l0,0l0,0c-2.12-0.25-3.88-0.19-5.26,0.19l0,0l0,0c-1.25-0.37-2.72-0.5-4.41-0.37l0,0l0,0
				c-1.69,0.12-3.22-0.12-4.6-0.75l0,0l0,0c-1.12,0.62-2.13,0.72-3.02,0.29l0,0l0,0c-0.87-0.45-1.81-0.67-2.81-0.67l0,0l0,0
				c-0.12-0.62-0.09-1.06,0.11-1.31l0,0l0,0c0.18-0.25,0.33-0.56,0.45-0.94l0,0l0,0c2.01,0.12,4.02,0.09,6.01-0.11l0,0l0,0
				c2.01-0.18,4.14-0.14,6.39,0.11l0,0l0,0c1.76,0.25,3.42,0.5,4.97,0.75l0,0l0,0c1.57,0.25,3.11,0.06,4.62-0.56l0,0l0,0
				c3.51,0,7.05-0.19,10.61-0.56l0,0l0,0c3.56-0.39,6.98-0.46,10.24-0.21l0,0l0,0c0.75,0,1.51-0.12,2.27-0.37l0,0l0,0
				c0.75-0.25,1.5-0.37,2.24-0.37l0,0l0,0c0.62,0,1.18,0.12,1.68,0.37l0,0l0,0c0.5,0.25,1.07,0.45,1.71,0.59l0,0l0,0
				c1.12,0.12,2.24,0.12,3.37,0l0,0l0,0c1.12-0.14,2.25-0.21,3.39-0.21l0,0l0,0c2.12,0,4.03,0.26,5.72,0.78l0,0l0,0
				c1.69,0.5,3.35,0.37,4.97-0.37l0,0l0,0c0.64,0.25,1.4,0.44,2.27,0.56l0,0l0,0c0.87,0.12,1.62,0,2.24-0.37l0,0l0,0
				c1,0.5,2.09,0.65,3.29,0.45l0,0l0,0c1.19-0.18,2.35-0.33,3.47-0.45l0,0l0,0c1.26,0.62,3.06,0.96,5.37,1.02l0,0l0,0
				c2.32,0.07,4.16,0.04,5.53-0.08l0,0l0,0c2.14,0.5,4.33,0.9,6.57,1.2l0,0l0,0c2.26,0.32,4.64,0.61,7.14,0.86l0,0l0,0
				c0.25,0.25,0.51,0.5,0.78,0.75l0,0l0,0c0.25,0.25,0.5,0.5,0.75,0.75l0,0l0,0c1.87-0.5,3.53-0.31,4.97,0.56l0,0l0,0
				c1.44,0.89,3.1,1.21,4.97,0.96l0,0l0,0c1.14,0.75,2.15,1.68,3.02,2.81l0,0l0,0c0.87,1.12,2.06,1.87,3.55,2.24l0,0l0,0
				c0.52-0.25,0.84-0.4,0.96-0.45l0,0l0,0c0.12-0.07,0.5-0.17,1.12-0.29l0,0l0,0c1,0.25,1.66,0.66,1.98,1.23l0,0l0,0
				c0.3,0.57,0.58,1.1,0.83,1.6l0,0l0,0c-0.62,0.12-1.1,0.31-1.42,0.56l0,0l0,0c-0.3,0.25-0.7,0.5-1.2,0.75l0,0l0,0
				c1.25,1.25,2.12,2.06,2.62,2.43l0,0l0,0c0.5,0.37,0.69,1.19,0.56,2.46l0,0l0,0c0.89,0.62,1.84,0.94,2.83,0.94l0,0l0,0
				c0.5,0.75,0.56,1.22,0.19,1.42l0,0l0,0c-0.37,0.18-0.75,0.33-1.12,0.45l0,0l0,0c1.12,0.62,1.65,0.66,1.58,0.11l0,0l0,0
				c-0.05-0.57,0.23-0.92,0.86-1.04l0,0l0,0c0.25-0.62,0.56-0.62,0.94,0l0,0l0,0c0.37,0.62,1.07,0.87,2.08,0.75l0,0l0,0
				c-0.12,0.62-0.26,1.28-0.4,1.98l0,0l0,0c-0.12,0.69-0.5,1.23-1.12,1.6l0,0l0,0c-0.62,0.5-1.09,0.75-1.39,0.75l0,0l0,0
				c-0.32,0-0.36,0.25-0.11,0.75l0,0l0,0c1.25,0.87,1.56,2.32,0.94,4.33l0,0l0,0c1,0.62,1.31,1.41,0.94,2.35l0,0l0,0
				c-0.37,0.93-0.44,1.84-0.19,2.73l0,0l0,0c0,0.25-0.06,0.62-0.19,1.12l0,0l0,0c-0.12,0.5-0.19,1.1-0.19,1.79l0,0l0,0
				c0,0.68,0,1.39,0,2.14l0,0l0,0c0,0.77-0.12,1.4-0.37,1.9l0,0l0,0c-0.12,0.25-0.31,0.62-0.56,1.12l0,0l0,0
				c-0.25,0.5-0.44,1.03-0.56,1.6l0,0l0,0c-0.12,0.55-0.12,1.09,0,1.6l0,0l0,0c0.12,0.5,0.5,0.87,1.12,1.12l0,0l0,0
				c-0.5,1.12-0.94,1.75-1.31,1.87l0,0l0,0c-0.37,0.12-0.56,0.5-0.56,1.12l0,0l0,0c-0.87-0.25-1.5-0.06-1.87,0.56l0,0l0,0
				c-0.39,0.62-1.09,0.87-2.08,0.75l0,0l0,0c-0.75,0.77-1.15,1.36-1.2,1.79l0,0l0,0c-0.07,0.45-0.29,0.48-0.67,0.11l0,0l0,0
				c-2.39,1.75-4.3,3.12-5.75,4.12l0,0l0,0c-1.43,1.02-3.02,2.02-4.78,3.02l0,0l0,0c-1.37,0.25-2.9,0.34-4.6,0.27l0,0l0,0
				c-1.69-0.05-3.16,0.36-4.41,1.23l0,0l0,0c-2.14,1.25-3.71,2.19-4.7,2.83l0,0l0,0c0.62,0.25,1.43,0.46,2.43,0.64l0,0l0,0
				c1.02,0.2,2.02,0.42,3.02,0.67l0,0l0,0c1,0.12,1.87-0.04,2.62-0.48l0,0l0,0c0.75-0.43,1.57-0.52,2.46-0.27l0,0l0,0
				c0.75,1.12,1.5,1.46,2.24,1.02l0,0l0,0c0.75-0.43,1.62-0.52,2.62-0.27l0,0l0,0c0.27,0.62,0.18,1.03-0.27,1.23l0,0l0,0
				c-0.45,0.18-0.67,0.52-0.67,1.02l0,0l0,0c0.62,0.75,1.47,1.25,2.54,1.5l0,0l0,0c1.07,0.27,2.14,0.53,3.21,0.78l0,0l0,0
				c1.07,0.25,2.1,0.56,3.1,0.94l0,0l0,0c1,0.37,1.75,0.94,2.24,1.68l0,0l0,0c0.62-0.37,1.12-0.4,1.5-0.08l0,0l0,0
				c0.37,0.3,0.82,0.33,1.34,0.08l0,0l0,0c0.25,1,0.87,1.62,1.87,1.87l0,0l0,0c1,0.25,2,0.5,2.99,0.75l0,0l0,0
				c0,1.26,0.35,2.33,1.04,3.21l0,0l0,0c0.69,0.87,1.48,1.68,2.35,2.43l0,0l0,0c0.87,0.77,1.62,1.59,2.24,2.46l0,0l0,0
				c0.64,0.87,0.96,1.93,0.96,3.18l0,0l0,0C52.05,9.21,53.3,9.4,54.67,8.76L54.67,8.76z M29.87-65.46l0.37-1.12l0,0
				c-0.5-0.25-0.94-0.37-1.31-0.37l0,0l0,0c-0.37,0-0.87,0.06-1.5,0.19l0,0l0,0c-1.51,0.87-2.55,1.35-3.1,1.42l0,0l0,0
				c-0.57,0.05-0.98,0.58-1.23,1.58l0,0l0,0c-1,0.52-1.82,0.9-2.46,1.15l0,0l0,0c-0.62,0.25-1.06,0.69-1.31,1.31l0,0l0,0
				c1.89-0.12,3.23-0.47,4.04-1.04l0,0l0,0c0.82-0.57,1.85-0.98,3.1-1.23l0,0l0,0c0-0.75,0.41-1.15,1.23-1.2l0,0l0,0
				C28.52-64.86,29.25-65.08,29.87-65.46L29.87-65.46z M37.38-54.93l0.75-0.94l0,0c-0.25-0.89-0.62-1.4-1.12-1.52l0,0l0,0
				c-0.5-0.12-1.1-0.15-1.79-0.08l0,0l0,0c-0.68,0.05-1.33,0.18-1.95,0.37l0,0l0,0c-0.64,0.2-1.21,0.1-1.71-0.29l0,0l0,0
				c-0.5,0.39-0.96,0.55-1.39,0.48l0,0l0,0c-0.45-0.05-0.86,0.23-1.23,0.86l0,0l0,0c0,0.62-0.31,1.06-0.94,1.31l0,0l0,0
				c-0.62,0.25-1.07,0.31-1.34,0.19l0,0l0,0c0-0.5,0.26-0.91,0.78-1.23l0,0l0,0c0.5-0.3,0.37-0.7-0.37-1.2l0,0l0,0
				c0.37-0.89,0.71-1.43,1.02-1.6l0,0l0,0c0.32-0.2,0.29-0.48-0.08-0.86l0,0l0,0c0.37,0,0.62-0.37,0.75-1.12l0,0l0,0
				c0.12-0.75,0.06-1.18-0.19-1.31l0,0l0,0c-0.5,0.25-1.03,0.5-1.6,0.75l0,0l0,0c-0.57,0.25-0.98,0.69-1.23,1.31l0,0l0,0
				c-0.25-0.12-0.59-0.21-1.02-0.27l0,0l0,0c-0.45-0.07-0.79,0.02-1.04,0.27l0,0l0,0c-0.5,0.87-1.03,1.47-1.6,1.79l0,0l0,0
				c-0.55,0.3-1.02,0.71-1.42,1.23l0,0l0,0c1.26-0.52,2.27-0.71,3.02-0.59l0,0l0,0c-0.12-0.62,0.12-1.02,0.75-1.2l0,0l0,0
				c0.62-0.2,1.06-0.29,1.31-0.29l0,0l0,0c-1.12,0.87-1.81,1.51-2.06,1.9l0,0l0,0c-0.25,0.37-0.69,0.69-1.31,0.94l0,0l0,0
				c0.5,0,0.9,0,1.2,0l0,0l0,0c0.32,0,0.79,0.06,1.42,0.19l0,0l0,0c0.87,0.62,0.97,1.09,0.29,1.39l0,0l0,0
				c-0.69,0.32-1.54,0.67-2.54,1.04l0,0l0,0c0.25,0.75,0.15,1.22-0.29,1.42l0,0l0,0c-0.43,0.18-0.83,0.39-1.2,0.64l0,0l0,0
				c0.12,0.39,0.28,0.74,0.45,1.04l0,0l0,0c0.2,0.32,0.23,0.73,0.11,1.23l0,0l0,0c0.87,0.25,1.43,0.19,1.68-0.19l0,0l0,0
				c0.25-0.37,0.75-0.56,1.5-0.56l0,0l0,0c2.14-0.89,3.87-1.8,5.18-2.73l0,0l0,0c1.3-0.94,2.83-1.35,4.6-1.23l0,0L37.38-54.93z
				 M41.15-43.46L41.15-43.46L41.15-43.46c-0.75,0.62-1.75,0.96-3.02,1.02l0,0l0,0c-1.25,0.07-2.06,0.61-2.43,1.6l0,0l0,0
				c-1.75,0.62-2.94,1.35-3.58,2.16l0,0l0,0c-0.62,0.82-1.43,1.1-2.43,0.86l0,0l0,0c0.25,1,0.75,1.4,1.5,1.2l0,0l0,0
				c0.75-0.18,1.53-0.43,2.35-0.75l0,0l0,0c0.82-0.3,1.6-0.45,2.35-0.45l0,0l0,0c0.75,0,1.25,0.62,1.5,1.87l0,0l0,0
				c-0.12,1.12-0.34,1.78-0.64,1.98l0,0l0,0c-0.32,0.18-0.48,0.59-0.48,1.23l0,0l0,0c1.12-0.12,1.72-0.45,1.79-0.96l0,0l0,0
				c0.05-0.5,0.46-0.62,1.23-0.37l0,0l0,0c0.62-1.12,1.21-2.59,1.76-4.41l0,0l0,0C41.61-40.31,41.65-41.97,41.15-43.46z M35.51-44.4
				L35.51-44.4L35.51-44.4c-1-0.52-1.87-0.55-2.62-0.11l0,0l0,0c-0.77,0.45-1.52,0.54-2.27,0.29l0,0l0,0
				c-1.37,0.62-1.93,0.96-1.68,1.02l0,0l0,0c0.25,0.07,0.37,0.29,0.37,0.67l0,0l0,0c-0.37,0.25-0.72,0.5-1.04,0.75l0,0l0,0
				c-0.3,0.25-0.77,0.25-1.39,0l0,0l0,0c-1.39,1.37-2.9,2.32-4.52,2.83l0,0l1.5,1.68l0,0c0.75,0.12,1.37-0.04,1.87-0.48l0,0l0,0
				c0.5-0.43,1.07-0.52,1.71-0.27l0,0l0,0c0.25-1.02,0.59-1.74,1.02-2.16l0,0l0,0c0.45-0.45,1.17-0.61,2.16-0.48l0,0l0,0
				c0-0.5,0.19-0.75,0.56-0.75l0,0l0,0c0.37,0,0.69-0.25,0.94-0.75l0,0l0,0c0.12-0.12,0.35-0.29,0.67-0.48l0,0l0,0
				c0.32-0.18,0.67-0.33,1.04-0.45l0,0l0,0c0.37-0.12,0.75-0.25,1.12-0.37l0,0l0,0C35.32-43.59,35.51-43.9,35.51-44.4z M35.7-30.5
				L35.7-30.5L35.7-30.5c-1.12,0-1.91,0.25-2.35,0.75l0,0l0,0c-0.45,0.5-1.35,0.62-2.73,0.37l0,0l0,0
				c-0.62,0.87-1.31,1.69-2.06,2.46l0,0l0,0c-0.75,0.75-1.94,1-3.58,0.75l0,0l0,0c0.12,0.5,0.1,0.81-0.08,0.94l0,0l0,0
				c-0.2,0.12-0.45,0.21-0.75,0.27l0,0l0,0c-0.32,0.07-0.58,0.17-0.78,0.29l0,0l0,0c-0.18,0.12-0.27,0.44-0.27,0.94l0,0l0,0
				c2.12-1.12,4.31-2.12,6.57-2.99l0,0l0,0C31.95-27.62,33.95-28.88,35.7-30.5z M-32.32-77.29l1.31-1.12l0,0
				c-0.37,0.12-0.94,0.09-1.68-0.11l0,0l0,0c-0.77-0.18-1.46-0.14-2.08,0.11l0,0l0,0c0.25,0.37,0.69,0.53,1.31,0.48l0,0l0,0
				C-32.83-78.01-32.44-77.79-32.32-77.29L-32.32-77.29z M22.92-23.55L22.92-23.55L22.92-23.55c-0.5,0.12-0.87,0.04-1.12-0.27l0,0
				l0,0c-0.25-0.32-0.63-0.48-1.15-0.48l0,0l0,0c-0.5,0-1,0.06-1.5,0.19l0,0l0,0c-0.5,0.12-1,0.31-1.5,0.56l0,0l0,0
				c-0.37,0.75-0.85,1.28-1.42,1.6l0,0l0,0c-0.55,0.3-0.89,0.84-1.02,1.6l0,0l0,0c1.25,0.37,2.47,0.34,3.66-0.11l0,0l0,0
				c1.18-0.45,2.46-0.73,3.85-0.86l0,0l0,0c0.25-0.5,0.31-0.9,0.19-1.2l0,0l0,0C22.8-22.83,22.8-23.18,22.92-23.55z M42.27,1.44
				L42.27,1.44L42.27,1.44c-0.12-0.62-0.5-0.75-1.12-0.37l0,0l0,0C40.52,1.44,40.09,1.75,39.84,2l0,0l0,0
				c0.37-0.25,0.78-0.34,1.2-0.27l0,0l0,0C41.49,1.78,41.9,1.68,42.27,1.44z M20.09-38.95L20.09-38.95L20.09-38.95
				c-0.62-0.52-1-1.24-1.12-2.16l0,0l0,0c-0.12-0.94,0.25-1.73,1.12-2.35l0,0l0,0c-0.25-0.62-0.59-1.06-1.02-1.31l0,0l0,0
				c-0.45-0.27-0.67-0.71-0.67-1.34l0,0l0,0c0.62-0.5,1.03-1.22,1.23-2.16l0,0l0,0c0.18-0.93-0.04-1.76-0.67-2.51l0,0l0,0
				c-0.25,0.37-0.62,0.44-1.12,0.19l0,0l0,0c-0.5-0.25-1-0.31-1.5-0.19l0,0l0,0c-0.75-0.77-1.25-1.18-1.5-1.23l0,0l0,0
				c-0.27-0.07-0.34-0.36-0.21-0.86l0,0l0,0c0.27-0.25,0.59-0.44,0.96-0.56l0,0l0,0c0.37-0.12,0.69-0.31,0.94-0.56l0,0l0,0
				c0.5-0.37,0.9-0.75,1.2-1.12l0,0l0,0c0.32-0.37,0.67-0.69,1.04-0.94l0,0l0,0c-0.62-0.37-1.28-0.5-1.98-0.37l0,0l0,0
				c-0.68,0.12-1.14-0.13-1.39-0.78l0,0l0,0c0.5-1.12,1.09-1.93,1.76-2.43l0,0l0,0c0.69-0.5,0.73-1.25,0.11-2.24l0,0l0,0
				c-1.5-0.37-2.31-0.97-2.43-1.79l0,0l0,0c-0.14-0.82-0.21-1.54-0.21-2.16l0,0l0,0c-0.75-0.75-1.52-1.47-2.33-2.16l0,0l0,0
				c-0.82-0.68-1.54-1.46-2.16-2.35l0,0l0,0c-1.14,0.25-2.21,0.25-3.21,0l0,0l0,0c-1-0.25-1.56-0.94-1.68-2.06l0,0l0,0
				c-0.75,0-1.35-0.16-1.79-0.48l0,0l0,0c-0.43-0.3-1.09-0.45-1.98-0.45l0,0l0,0c-0.12-1.64-0.81-2.49-2.06-2.54l0,0l0,0
				c-1.25-0.07-2.47-0.11-3.66-0.11l0,0l0,0c-1.19,0-2.26-0.09-3.21-0.27l0,0l0,0c-0.93-0.2-1.45-0.67-1.58-1.42l0,0l0,0
				c-2.89,0-5.21,0.04-6.98,0.11l0,0l0,0c-1.75,0.05-4-0.04-6.76-0.29l0,0l0,0c-1.5,0.62-2.72,0.85-3.66,0.67l0,0l0,0
				c-0.94-0.2-2.04-0.11-3.29,0.27l0,0l0,0c0.25,0.5,0.31,0.87,0.19,1.12l0,0l0,0c-0.12,0.25-0.31,0.51-0.56,0.78l0,0l0,0
				c-0.25,0.25-0.53,0.5-0.86,0.75l0,0l0,0c-0.3,0.25-0.52,0.56-0.64,0.94l0,0l0,0c1.75,0,2.99,0.31,3.74,0.94l0,0l0,0
				c-0.25,0.87-0.65,1.53-1.2,1.98l0,0l0,0c-0.57,0.43-1.2,0.83-1.9,1.2l0,0l0,0c-0.68,0.39-1.26,0.84-1.76,1.34l0,0l0,0
				c-0.52,0.5-0.84,1.18-0.96,2.06l0,0l0,0c0.27,0.25,0.61,0.41,1.04,0.48l0,0l0,0c0.45,0.05,0.79,0.2,1.04,0.45l0,0l0,0
				c-0.12,0.87-0.5,1.57-1.12,2.08l0,0l0,0c-0.64,0.5-1.09,1.12-1.34,1.87l0,0l0,0c-0.25,1-0.25,2,0,2.99l0,0l0,0
				c0.25,1.02,0.37,2.02,0.37,3.02l0,0l0,0c1.64,0.25,2.71,0.75,3.21,1.5l0,0l0,0c-0.25,0.62-0.6,1.18-1.04,1.68l0,0l0,0
				c-0.43,0.52-0.77,1.09-1.02,1.71l0,0l0,0c0.5,1,0.78,1.81,0.83,2.43l0,0l0,0c0.07,0.62-0.2,0.81-0.83,0.56l0,0l0,0
				c-0.25,1.12-0.35,1.97-0.29,2.54l0,0l0,0c0.07,0.57,0.36,1.23,0.86,1.98l0,0l0,0c0.12,1.62,0.4,2.41,0.83,2.35l0,0l0,0
				c0.45-0.07,0.86,0.2,1.23,0.83l0,0l0,0c-0.5,0.27-0.81,0.59-0.94,0.96l0,0l0,0c-0.12,0.37-0.31,0.69-0.56,0.94l0,0l0,0
				c0.25,0.37,0.62,0.59,1.12,0.64l0,0l0,0c0.5,0.07,0.87,0.29,1.12,0.67l0,0l0,0c-0.25,1.25-0.75,2.32-1.5,3.21l0,0l0,0
				c-0.75,0.87-1.62,1.62-2.62,2.24l0,0l0,0c0.37,0.37,0.5,0.69,0.37,0.94l0,0l0,0c-0.12,0.25-0.32,0.62-0.59,1.12l0,0l0,0
				c0.39,0.25,0.68,0.56,0.86,0.94l0,0l0,0c0.2,0.37,0.54,0.69,1.04,0.96l0,0l0,0c-0.25,0.62-0.56,1.09-0.94,1.39l0,0l0,0
				c-0.37,0.32-0.56,0.92-0.56,1.79l0,0l0,0c0.75,1.76,0.94,3.05,0.56,3.85l0,0l0,0c-0.37,0.82-0.82,1.73-1.34,2.73l0,0l0,0
				c0.52,0.75,0.84,1.25,0.96,1.5l0,0l0,0c0.12,0.25,0.37,0.45,0.75,0.59l0,0l0,0c3.39-0.89,6.55-1.21,9.49-0.96l0,0l0,0
				c2.94,0.25,5.91,0.06,8.93-0.56l0,0l0,0c2,0.87,3.96,1.12,5.91,0.75l0,0l0,0c1.94-0.37,4.17-0.44,6.68-0.19l0,0l0,0
				c0.37-0.5,0.94-0.75,1.68-0.75l0,0l0,0c0.75,0,1.57-0.06,2.46-0.19l0,0l0,0c1.37-0.62,2.65-1.25,3.85-1.87l0,0l0,0
				c1.18-0.62,2.65-1.06,4.41-1.31l0,0l0,0c0.62-1.39,1.56-2.67,2.81-3.85l0,0l0,0c1.26-1.19,2.02-2.67,2.27-4.44l0,0l0,0
				c-0.62,0-1.26-0.44-1.9-1.31l0,0l0,0c0.12-1.12,0.51-2,1.15-2.62l0,0l0,0c0.62-0.64,1.27-1.24,1.95-1.79l0,0l0,0
				c0.69-0.57,1.29-1.23,1.79-1.98l0,0l0,0C19.84-36.7,20.09-37.7,20.09-38.95z M45.66,4.46L45.66,4.46L45.66,4.46
				c-0.64-0.5-1.27-0.5-1.9,0l0,0l0,0c-0.62,0.5-1.18,0.94-1.68,1.31l0,0l0,0c0.5,0,1.18-0.06,2.06-0.19l0,0l0,0
				C45.03,5.45,45.54,5.08,45.66,4.46z M39.65,2L39.65,2L39.65,2c-0.64-0.37-1.15-0.31-1.52,0.19l0,0l0,0
				c-0.37,0.5-0.87,0.82-1.5,0.96l0,0l0,0c0.62-0.14,1.16-0.3,1.6-0.48l0,0l0,0C38.68,2.47,39.15,2.25,39.65,2z M-40.23-78.42
				L-40.23-78.42L-40.23-78.42c-0.87-0.25-1.75-0.25-2.62,0l0,0l0,0c-0.87,0.25-1.43,0.75-1.68,1.5l0,0l0,0
				c0.87-0.12,1.72-0.25,2.54-0.37l0,0l0,0C-41.19-77.42-40.6-77.79-40.23-78.42z M30.06-3.08L30.06-3.08L30.06-3.08
				c-0.5-0.12-1.1,0.04-1.79,0.48l0,0l0,0c-0.68,0.45-1.21,0.86-1.6,1.23l0,0l0,0c0.64-0.25,1.27-0.47,1.9-0.67l0,0l0,0
				C29.18-2.22,29.68-2.56,30.06-3.08z M33.08-1.37l0.37-0.56l0,0c-0.52-0.37-1.02-0.47-1.52-0.29l0,0l0,0c-0.5,0.2-1,0.48-1.5,0.86
				l0,0l0,0c-0.5,0.37-1.06,0.71-1.68,1.02l0,0l0,0c-0.62,0.32-1.25,0.48-1.87,0.48l0,0l0,0c0,0.62-0.32,1-0.96,1.12l0,0l0,0
				c-0.62,0.12-1.25,0.12-1.87,0l0,0l0,0c0,0.62-0.31,0.97-0.94,1.04l0,0l0,0c-0.62,0.05-0.87,0.53-0.75,1.42l0,0l0,0
				c2-0.64,3.81-1.46,5.45-2.46l0,0l0,0C29.43,0.25,31.19-0.62,33.08-1.37L33.08-1.37z M22.55-7.57L22.55-7.57L22.55-7.57
				c-2.14,0.25-3.77,1-4.89,2.24l0,0l0,0c1-0.37,1.91-0.69,2.73-0.94l0,0l0,0C21.2-6.51,21.92-6.95,22.55-7.57z M28.56-4.95
				L28.56-4.95L28.56-4.95c-1.89,0.25-3.46,0.78-4.7,1.6l0,0l0,0c-1.25,0.82-2.57,1.54-3.96,2.16l0,0l0,0
				c1.14,0.87,1.84,1.12,2.08,0.75l0,0l0,0c0.25-0.37,0.5-0.69,0.75-0.94l0,0l0,0c1-0.75,2.06-1.32,3.18-1.71l0,0l0,0
				C27.05-3.46,27.94-4.08,28.56-4.95z M-47.92-76.73L-47.92-76.73L-47.92-76.73c-0.62-0.25-1.28-0.12-1.98,0.37l0,0l0,0
				c-0.68,0.5-0.95,1.01-0.83,1.52l0,0l0,0c0.25-0.52,0.71-0.8,1.39-0.86l0,0l0,0C-48.65-75.76-48.17-76.11-47.92-76.73z
				 M42.64,4.46L42.64,4.46L42.64,4.46c-0.75-0.87-1.37-1.28-1.87-1.23l0,0l0,0c-0.5,0.07-0.97,0.2-1.42,0.37l0,0l0,0
				c-0.45,0.2-0.88,0.42-1.31,0.67l0,0l0,0c-0.45,0.25-0.92,0.31-1.42,0.19l0,0l0,0c-0.25,0.87-0.94,1.31-2.06,1.31l0,0l0,0
				c-2.01,1.12-3.71,2.16-5.08,3.1l0,0l0,0c-1.37,0.94-2.75,1.92-4.14,2.91l0,0l0,0c1.39,0.25,2.73-0.1,4.04-1.04l0,0l0,0
				c1.32-0.93,2.61-1.71,3.88-2.35l0,0l0,0c0.62,0.25,1.25,0,1.87-0.75l0,0l0,0c0.62-0.75,1.31-1,2.06-0.75l0,0l0,0
				c0.62-0.62,1.47-1.18,2.54-1.68l0,0l0,0C40.8,4.7,41.77,4.46,42.64,4.46z M36.44,0.5L36.44,0.5L36.44,0.5
				c-0.62-0.12-1.16-0.06-1.6,0.19l0,0l0,0c-0.43,0.25-0.83,0.5-1.2,0.75l0,0l0,0C33.26,1.68,32.88,1.87,32.49,2l0,0l0,0
				c-0.37,0.12-0.75,0.06-1.12-0.19l0,0l0,0c-0.5,0.5-1.12,0.91-1.87,1.23l0,0l0,0c-0.75,0.32-1.5,0.67-2.24,1.04l0,0l0,0
				c-0.77,0.37-1.49,0.78-2.16,1.2l0,0l0,0c-0.69,0.45-1.23,1.04-1.6,1.79l0,0l0,0c2.12,0,3.63-0.47,4.52-1.42l0,0l0,0
				c0.87-0.93,2.18-1.45,3.93-1.58l0,0l0,0c0.37-1.02,1.1-1.65,2.16-1.9l0,0l0,0C35.16,1.93,35.95,1.37,36.44,0.5z M19.71-8.88
				L19.71-8.88L19.71-8.88c-0.75-0.14-1.56,0.01-2.43,0.45l0,0l0,0c-0.87,0.45-1.56,0.98-2.06,1.6l0,0l0,0c1,0,1.84-0.19,2.51-0.56
				l0,0l0,0C18.43-7.76,19.09-8.26,19.71-8.88z M-52.82-78.42L-52.82-78.42L-52.82-78.42c-0.5-0.37-1.1-0.35-1.79,0.08l0,0l0,0
				c-0.68,0.45-0.89,0.86-0.64,1.23l0,0l0,0c0.12-0.5,0.5-0.75,1.12-0.75l0,0l0,0C-53.5-77.86-53.06-78.04-52.82-78.42z M45.85,6.89
				L45.85,6.89L45.85,6.89c-1.14,0-2.24,0.22-3.29,0.67l0,0l0,0c-1.07,0.43-2.16,0.93-3.29,1.5l0,0l0,0
				c-1.14,0.57-2.27,1.13-3.39,1.68l0,0l0,0c-1.12,0.57-2.32,0.86-3.58,0.86l0,0l0,0c-1.37,0.87-2.43,1.59-3.18,2.16l0,0l0,0
				c-0.75,0.55-1.63,0.95-2.65,1.2l0,0l0,0c0.12,0.77,0.1,1.36-0.08,1.79l0,0l0,0c-0.2,0.45-0.17,0.86,0.08,1.23l0,0l0,0
				c1.02,0.25,1.74,0.06,2.16-0.56l0,0l0,0c0.45-0.62,0.79-0.94,1.04-0.94l0,0l0,0c2.39-1.14,4.36-2.33,5.91-3.58l0,0l0,0
				c1.57-1.25,3.61-2.12,6.12-2.62l0,0l0,0c0.37-0.62,0.78-0.97,1.23-1.04l0,0l0,0c0.43-0.05,0.89-0.34,1.39-0.86l0,0l0,0
				c0.64-0.62,1.09-0.84,1.34-0.64l0,0l0,0C45.91,7.92,45.98,7.64,45.85,6.89z M-38.89-76.92L-38.89-76.92L-38.89-76.92
				c-1.02,0.25-2.02,0.56-3.02,0.94l0,0l0,0c-1,0.37-2,0.69-2.99,0.96l0,0l0,0c-0.52,0.12-1.11,0.44-1.79,0.94l0,0l0,0
				c-0.69,0.5-1.35,0.87-1.98,1.12l0,0l0,0c-0.87,0.25-1.68,0.72-2.43,1.42l0,0l0,0c-0.77,0.68-1.46,1.2-2.08,1.58l0,0l0,0
				c-1.25,1.02-2.56,1.71-3.93,2.08l0,0l0,0c-1.39,0.37-2.4,1.18-3.02,2.43l0,0l0,0c0.12,0.25,0.25,0.72,0.37,1.42l0,0l0,0
				c0.12,0.69,0.12,1.23,0,1.6l0,0l0,0c0.62,0.12,1.03,0.06,1.23-0.19l0,0l0,0c0.18-0.25,0.39-0.51,0.64-0.78l0,0l0,0
				c0.12-1.75,0.6-2.97,1.42-3.66l0,0l0,0c0.82-0.68,1.92-1.14,3.29-1.39l0,0l0,0c1.89-1.76,4.2-3.21,6.95-4.33l0,0l0,0
				C-43.48-73.9-41.03-75.28-38.89-76.92z M28.56,7.07L28.56,7.07L28.56,7.07c-1.26,0.87-1.96,1.37-2.08,1.5l0,0l0,0
				c0.39,0.25,0.84,0.22,1.34-0.08l0,0l0,0C28.31,8.17,28.56,7.7,28.56,7.07z M-51.51-74.65L-51.51-74.65L-51.51-74.65
				c-1.25,0.62-2.41,1.12-3.47,1.5l0,0l0,0c-1.05,0.37-1.76,1.06-2.14,2.06l0,0l0,0c1-0.37,2.03-0.85,3.1-1.42l0,0l0,0
				C-52.97-73.06-52.13-73.78-51.51-74.65z M-37.4-71.09l1.5-0.94l0,0c-2.39,0.5-4.55,1.22-6.49,2.16l0,0l0,0
				c-1.92,0.94-3.77,1.98-5.53,3.1l0,0l0,0c-1.75,1.12-3.47,2.28-5.16,3.47l0,0l0,0c-1.7,1.2-3.49,2.3-5.37,3.3l0,0l0,0
				c4.01-1.62,7.64-3.44,10.9-5.45l0,0l0,0C-44.29-67.45-40.91-69.33-37.4-71.09L-37.4-71.09z M-36.65-55.49L-36.65-55.49
				L-36.65-55.49c-0.37,0.25-0.78,0.46-1.23,0.64l0,0l0,0c-0.43,0.2-0.52,0.61-0.27,1.23l0,0l0,0c0.62,0.12,1.18-0.03,1.68-0.45l0,0
				l0,0C-35.96-54.52-36.02-54.99-36.65-55.49z M50.34,13.27L50.34,13.27L50.34,13.27c-2.49,0.75-4.75,2-6.76,3.77l0,0l0,0
				c0,0.87-0.28,1.5-0.83,1.87l0,0l0,0c-0.57,0.37-1.35,0.31-2.35-0.19l0,0l0,0c-1.14-0.12-2.27,0.25-3.39,1.12l0,0l0,0
				c0-0.75,0.37-1.25,1.12-1.5l0,0l0,0c0.77-0.25,1.4-0.19,1.9,0.19l0,0l0,0c1-1.75,2.49-2.94,4.49-3.58l0,0l0,0
				c2.01-0.62,3.71-1.56,5.08-2.81l0,0l0,0c-0.87-0.87-1.4-1.25-1.58-1.12l0,0l0,0c-0.2,0.12-0.42,0-0.67-0.37l0,0l1.5-1.9l0,0
				c-0.75-0.25-1.41-0.25-1.98,0l0,0l0,0c-0.55,0.27-1.05,0.55-1.5,0.86l0,0l0,0c-0.45,0.32-0.88,0.61-1.31,0.86l0,0l0,0
				c-0.45,0.25-0.98,0.19-1.6-0.19l0,0l0,0c-0.12,0.37-0.35,0.75-0.67,1.12l0,0l0,0c-0.3,0.37-0.77,0.44-1.39,0.19l0,0l0,0
				c-0.12,0.62-0.5,0.94-1.12,0.94l0,0l0,0c-0.64,0-1.27,0.06-1.9,0.19l0,0l0,0c-0.25,1.12-0.87,1.75-1.87,1.87l0,0l0,0
				c-1,0.12-1.81,0.69-2.43,1.71l0,0l0,0c-0.52,0.25-1.11,0.65-1.79,1.2l0,0l0,0c-0.69,0.57-1.17,0.92-1.42,1.04l0,0l0,0
				c0.5,0,1-0.06,1.5-0.19l0,0l0,0c0.5-0.12,0.94-0.31,1.31-0.56l0,0l0,0c-1.12,0.87-2.12,1.68-2.99,2.43l0,0l0,0
				c-0.87,0.77-1.88,1.46-3.02,2.08l0,0l0,0c0.27,1,0.53,1.68,0.78,2.06l0,0l0,0c1.62-0.75,3.09-1.59,4.41-2.54l0,0l0,0
				c1.32-0.94,2.85-1.67,4.6-2.16l0,0l0,0c0.25,0.37,0.5,0.69,0.75,0.94l0,0l0,0c0.25,0.25,0.44,0.69,0.56,1.34l0,0l0,0
				c-0.37-0.12-0.78-0.22-1.2-0.29l0,0l0,0c-0.45-0.05-0.73,0.17-0.86,0.67l0,0l0,0c-1.37,0-2.09-0.1-2.16-0.29l0,0l0,0
				c-0.05-0.18-0.2-0.2-0.45-0.08l0,0l0,0c-1.02,1.5-1.36,2.22-1.04,2.16l0,0l0,0c0.3-0.07,0.39,0.08,0.27,0.45l0,0l0,0
				c-0.62,0.25-1.06,0.47-1.31,0.67l0,0l0,0c-0.25,0.18-0.75,0.14-1.5-0.11l0,0l0,0c0,0.62-0.22,1.1-0.67,1.42l0,0l0,0
				c-0.43,0.3-0.86,0.65-1.31,1.04l0,0l0,0c-0.43,0.37-0.8,0.81-1.12,1.31l0,0l0,0c-0.32,0.5-0.36,1.12-0.11,1.87l0,0l0,0
				c0.77,0.25,1.34,0.1,1.71-0.45l0,0l0,0c0.37-0.57,0.87-0.92,1.5-1.04l0,0l0,0c0.75,0.25,1.22,0.46,1.42,0.64l0,0l0,0
				c0.18,0.2,0.58,0.17,1.2-0.08l0,0l0,0c-0.62-1-0.69-1.59-0.19-1.79l0,0l0,0c0.5-0.18,1.07-0.39,1.71-0.64l0,0l0,0
				c0.5,0.12,0.87-0.13,1.12-0.78l0,0l0,0c0.25-0.62,0.87-0.94,1.87-0.94l0,0l0,0c0.37-0.5,0.91-1.12,1.6-1.87l0,0l0,0
				c0.69-0.75,1.42-0.81,2.16-0.19l0,0l0,0c0.87-0.37,1.34-0.62,1.39-0.75l0,0l0,0c0.07-0.12,0.29-0.19,0.67-0.19l0,0l0,0
				c0.12-0.62,0.53-1.22,1.23-1.79l0,0l0,0c0.68-0.57,1.46-0.73,2.35-0.48l0,0l0,0c0.37-0.62,0.94-0.9,1.68-0.83l0,0l0,0
				c0.75,0.05,1.31-0.23,1.68-0.86l0,0l0,0c0.12,1.12-0.12,1.68-0.75,1.68l0,0l0,0c-0.62,0-1.12-0.12-1.5-0.37l0,0l0,0
				c-0.75,0.5-1.28,0.78-1.6,0.86l0,0l0,0c-0.3,0.05-0.45-0.04-0.45-0.29l0,0l0,0c-0.12,0.64-0.45,1.05-0.96,1.23l0,0l0,0
				c-0.5,0.2-0.69,0.67-0.56,1.42l0,0l0,0c1.02,0.25,1.71,0.09,2.08-0.48l0,0l0,0c0.37-0.55,1.06-0.77,2.06-0.64l0,0l0,0
				c-1.12,0.87-1.87,1.56-2.24,2.06l0,0l0,0c-0.37,0.5-1.01,0.81-1.9,0.94l0,0l0,0c-1.12,0-2,0.29-2.62,0.86l0,0l0,0
				c-0.62,0.55-1.25,0.96-1.87,1.23l0,0l0,0c-1.39,0.87-2.93,1.59-4.62,2.14l0,0l0,0c-1.69,0.57-3.04,1.42-4.04,2.54l0,0l0,0
				c-1,1.02-2.06,1.77-3.18,2.27l0,0l0,0c-1.14,0.5-1.9,1.43-2.27,2.81l0,0l0,0c2.64-1,5.05-2.12,7.24-3.37l0,0l0,0
				c2.19-1.26,4.35-2.58,6.47-3.96l0,0l0,0c1.14-0.62,2.08-1.03,2.83-1.23l0,0l0,0c0.75-0.18,1.5-0.39,2.24-0.64l0,0l0,0
				c0.62-0.52,1.47-1.05,2.54-1.6l0,0l0,0c1.07-0.57,2.1-1.1,3.1-1.6l0,0l0,0c0.62-1.25,1.06-2.44,1.31-3.58l0,0l0,0
				c0.27-1.12-0.11-2.06-1.12-2.81l0,0l0,0c0.75,0,1.16-0.35,1.23-1.04l0,0l0,0c0.07-0.68-0.15-1.14-0.67-1.39l0,0l0,0
				c0.37-0.37,0.53-0.78,0.48-1.23l0,0l0,0C50.56,14.06,50.47,13.65,50.34,13.27z M39.46,24.74L39.46,24.74L39.46,24.74
				c-0.52,0.62-1.02,0.85-1.52,0.67l0,0l0,0c-0.5-0.2-0.69,0.08-0.56,0.83l0,0l0,0c0.62-0.25,1.06-0.4,1.31-0.45l0,0l0,0
				C38.96,25.71,39.21,25.36,39.46,24.74z M-57.31-71.09L-57.31-71.09L-57.31-71.09c-0.64,0.37-1.3,0.62-1.98,0.75l0,0l0,0
				c-0.69,0.12-0.92,0.5-0.67,1.12l0,0l0,0c0.5,0.14,0.97-0.04,1.42-0.56l0,0l0,0C-58.11-70.28-57.7-70.72-57.31-71.09z
				 M-36.09-63.4L-36.09-63.4L-36.09-63.4c-3.76,0.64-7.02,1.81-9.78,3.5l0,0l0,0c-2.74,1.67-5.31,3.58-7.7,5.72l0,0l0,0
				c-1.12,0.62-2.12,1.28-2.99,1.98l0,0l0,0c-0.89,0.68-1.65,1.52-2.27,2.54l0,0l0,0c0.62,0,1.1-0.22,1.42-0.67l0,0l0,0
				c0.32-0.43,0.73-0.78,1.23-1.04l0,0l0,0c2.62-1,4.65-2.06,6.09-3.18l0,0l0,0c1.44-1.12,3.05-2.07,4.81-2.83l0,0l0,0
				c1-0.5,1.81-0.94,2.43-1.31l0,0l0,0c0.62-0.37,1.31-0.81,2.06-1.31l0,0l0,0c1.02-0.62,1.99-1.1,2.91-1.42l0,0l0,0
				C-36.93-61.72-36.34-62.38-36.09-63.4z M37.01,27.38L37.01,27.38L37.01,27.38c-0.75-0.27-1.37-0.43-1.87-0.48l0,0l0,0
				c-0.5-0.07-0.69,0.21-0.56,0.86l0,0l0,0c0.62,0.25,1.06,0.28,1.31,0.08l0,0l0,0C36.13,27.66,36.51,27.51,37.01,27.38z
				 M29.31,19.29L29.31,19.29L29.31,19.29c-0.37-0.25-0.78-0.25-1.23,0l0,0l0,0c-0.43,0.25-0.77,0.5-1.02,0.75l0,0l0,0
				c0.25,0.12,0.62,0.1,1.12-0.08l0,0l0,0C28.69,19.76,29.06,19.54,29.31,19.29z M-35.52-43.09L-35.52-43.09L-35.52-43.09
				c-0.25-0.12-0.6-0.31-1.04-0.56l0,0l0,0c-0.43-0.25-0.83-0.25-1.2,0l0,0l0,0c0.62,0.62,1.16,0.96,1.6,1.02l0,0l0,0
				C-35.74-42.56-35.52-42.71-35.52-43.09z M-50.54-60.38L-50.54-60.38L-50.54-60.38c-1.39,0.75-2.9,1.56-4.52,2.43l0,0l0,0
				c-1.64,0.89-2.77,1.96-3.39,3.21l0,0l0,0c1.51-0.62,2.9-1.47,4.14-2.54l0,0l0,0C-53.06-58.35-51.81-59.38-50.54-60.38z
				 M-36.83-47.04L-36.83-47.04L-36.83-47.04c-1.25,0.75-2.5,1.37-3.77,1.87l0,0l0,0c-1.25,0.52-2.37,1.21-3.37,2.08l0,0l0,0
				c-1.26,0-2.4,0.37-3.39,1.12l0,0l0,0c-1,0.75-1.37,1.43-1.12,2.06l0,0l0,0c1.5-0.25,2.63-0.81,3.39-1.68l0,0l0,0
				c0.75-0.87,1.93-1.25,3.55-1.12l0,0l0,0c0.12-0.62,0.47-1.1,1.04-1.42l0,0l0,0c0.55-0.3,1.15-0.58,1.79-0.83l0,0l0,0
				c0.62-0.27,1.12-0.55,1.5-0.86l0,0l0,0C-36.83-46.13-36.71-46.54-36.83-47.04z M-41.54-55.49L-41.54-55.49L-41.54-55.49
				c-3.26,1.37-6.26,3.03-9.01,4.97l0,0l0,0c-2.76,1.94-5.52,3.98-8.28,6.12l0,0l0,0c1.02,0,1.9-0.41,2.65-1.23l0,0l0,0
				c0.75-0.82,1.81-1.29,3.18-1.42l0,0l0,0c1.39-1.37,2.83-2.75,4.33-4.14l0,0l0,0c1.5-1.37,3.31-2.18,5.45-2.43l0,0l0,0
				c-0.12-0.62,0.15-0.94,0.83-0.94l0,0l0,0C-41.7-54.55-41.41-54.86-41.54-55.49z M-35.15-38.2L-35.15-38.2L-35.15-38.2
				c-1,0-1.78,0.21-2.35,0.64l0,0l0,0c-0.55,0.45-1.27,0.73-2.16,0.86l0,0l0,0c0.27,0.5,0.27,0.87,0,1.12l0,0l0,0
				c-0.25,0.25-0.19,0.56,0.19,0.94l0,0l0,0c0.77-0.62,1.71-1.02,2.83-1.2l0,0l0,0C-35.52-36.04-35.03-36.83-35.15-38.2z
				 M51.3,25.67L51.3,25.67L51.3,25.67c-0.25,0.12-0.63,0.12-1.15,0l0,0l0,0c-0.5-0.12-0.81-0.06-0.94,0.19l0,0l0,0
				c-0.5,0.89-0.9,1.3-1.2,1.23l0,0l0,0c-0.32-0.07-0.54,0.03-0.67,0.29l0,0l0,0c-0.87,0.87-1.12,1.34-0.75,1.39l0,0l0,0
				c0.37,0.07,0.62,0.29,0.75,0.67l0,0l0,0c-0.62-0.12-1.18-0.1-1.68,0.08l0,0l0,0c-0.5,0.2-0.94,0.39-1.34,0.59l0,0l0,0
				c-0.37,0.18-0.78,0.3-1.2,0.37l0,0l0,0c-0.45,0.05-0.92-0.04-1.42-0.29l0,0l0,0c-0.5,0.5-0.94,1-1.31,1.5l0,0l0,0
				c-0.37,0.5-1.07,0.75-2.08,0.75l0,0l0,0c0.25,0.37,0,0.66-0.75,0.86l0,0l0,0c-0.75,0.2-1.37,0.23-1.87,0.11l0,0l0,0
				c-0.25,1-1.06,1.75-2.43,2.24l0,0l0,0c-1.39,0.5-2.33,0.87-2.83,1.12l0,0l0,0c0,0.37-0.19,0.66-0.56,0.86l0,0l0,0
				c-0.37,0.18-0.81,0.37-1.31,0.56l0,0l0,0c-0.5,0.18-0.97,0.39-1.42,0.64l0,0l0,0c-0.45,0.27-0.61,0.53-0.48,0.78l0,0l0,0
				c-0.5,0.75-1.06,1.21-1.68,1.39l0,0l0,0c-0.62,0.2-0.87,0.73-0.75,1.6l0,0l0,0c1.62-0.37,3.09-0.97,4.41-1.79l0,0l0,0
				c1.32-0.8,2.57-1.61,3.77-2.43l0,0l0,0c1.19-0.82,2.45-1.57,3.77-2.24l0,0l0,0c1.3-0.69,2.71-1.17,4.22-1.42l0,0l0,0
				c1.25-0.5,2.31-1.26,3.18-2.27l0,0l0,0c0.89-1,2.02-1.37,3.39-1.12l0,0l0,0c-1.51,1.64-3.08,2.58-4.7,2.83l0,0l0,0
				c1,0.37,1.75,0.4,2.24,0.08l0,0l0,0c0.52-0.3,1.09-0.27,1.71,0.11l0,0l0,0c-1.14,0.25-2.05,0.65-2.73,1.2l0,0l0,0
				c-0.69,0.57-1.67,0.92-2.91,1.04l0,0l0,0c-1.12-0.62-1.91-0.81-2.35-0.56l0,0l0,0c-0.45,0.25-1.04,0.31-1.79,0.19l0,0l0,0
				c-0.62,0.87-1.06,1.43-1.31,1.68l0,0l0,0c-0.25,0.25-0.62,0.31-1.12,0.19l0,0l0,0c-0.37,0.77-0.91,1.34-1.6,1.71l0,0l0,0
				c-0.69,0.37-1.23,0.87-1.6,1.5l0,0l0,0c-1.25,0-2.03,0.09-2.35,0.27l0,0l0,0c-0.3,0.2-0.64,0.36-1.02,0.48l0,0l0,0
				c0,1.25-0.04,2-0.11,2.24l0,0l0,0c-0.05,0.25-0.28,0.37-0.67,0.37l0,0l0,0c-1.12-0.5-1.68-0.65-1.68-0.45l0,0l0,0
				c0,0.18-0.19,0.27-0.56,0.27l0,0l0,0c0,1.26-0.15,1.99-0.45,2.16l0,0l0,0c-0.32,0.2-0.61,0.42-0.86,0.67l0,0l0,0
				c-0.75,0.87-1.37,1.53-1.87,1.98l0,0l0,0c-0.52,0.43-0.71,0.83-0.59,1.2l0,0l0,0c0.89-0.25,1.59-0.65,2.08-1.2l0,0l0,0
				c0.5-0.57,1.25-0.73,2.24-0.48l0,0l0,0c4.26-2.64,8.27-5.08,12.03-7.32l0,0l0,0c1-0.25,1.94-0.66,2.83-1.23l0,0l0,0
				c0.87-0.55,2-0.83,3.37-0.83l0,0l0,0c0.87-1.14,1.94-1.96,3.21-2.46l0,0l0,0c1.25-0.5,2.18-1.5,2.81-2.99l0,0l0,0
				c0-0.25,0.37-0.63,1.12-1.15l0,0l0,0c0.77-0.5,0.89-1.43,0.37-2.81l0,0l0,0c-0.87-0.25-1.4-0.19-1.58,0.19l0,0l0,0
				c-0.2,0.37-0.54,0.69-1.04,0.94l0,0l0,0c0.87-1.62,1.18-2.49,0.94-2.62l0,0l0,0c-0.25-0.12-0.37-0.37-0.37-0.75l0,0l0,0
				c0.75,0,1.43-0.19,2.06-0.56l0,0l0,0C51.36,26.81,51.55,26.3,51.3,25.67z M-36.09-51.56L-36.09-51.56L-36.09-51.56
				c-3.14,0.64-5.86,1.71-8.18,3.21l0,0l0,0c-2.32,1.5-4.73,2.88-7.24,4.14l0,0l0,0c-0.75,0.87-1.68,1.56-2.81,2.06l0,0l0,0
				c-1.12,0.5-2,1.25-2.62,2.24l0,0l0,0c-0.64,0.37-1.24,0.69-1.79,0.96l0,0l0,0c-0.57,0.25-0.92,0.75-1.04,1.5l0,0l0,0
				c3.51-1.89,6.8-3.93,9.86-6.12l0,0l0,0c3.08-2.19,6.63-3.97,10.64-5.34l0,0l0,0c0.37-0.62,1-0.97,1.87-1.04l0,0l0,0
				C-36.52-50.01-36.09-50.54-36.09-51.56z M46.97,39.78L46.97,39.78L46.97,39.78c-1.12,0.25-2.28,0.59-3.47,1.02l0,0l0,0
				c-1.19,0.45-2.6,0.79-4.22,1.04l0,0l0,0c-0.52,1-1.24,1.56-2.16,1.68l0,0l0,0c-0.94,0.12-1.6,0.69-1.98,1.71l0,0l0,0
				c-0.5,0.5-1.38,0.87-2.65,1.12l0,0l0,0c-1.25,0.25-2.18,0.69-2.81,1.31l0,0l0,0c-0.5,0.5-0.85,0.85-1.04,1.04l0,0l0,0
				c-0.18,0.18-0.33,0.45-0.45,0.83l0,0l0,0c1.75-1,3.59-1.93,5.53-2.81l0,0l0,0c1.94-0.87,3.86-1.88,5.75-3.02l0,0l0,0
				c1.87-0.5,3.3-1.1,4.3-1.79l0,0l0,0C44.78,41.25,45.85,40.53,46.97,39.78z M-35.34-29.57L-35.34-29.57L-35.34-29.57
				c-0.12,0.37-0.5,0.6-1.12,0.67l0,0l0,0c-0.62,0.05-0.75,0.33-0.37,0.83l0,0l0,0c0.5-0.37,1-0.62,1.5-0.75l0,0l0,0
				C-34.84-28.94-34.84-29.19-35.34-29.57z M-40.23-35.39L-40.23-35.39L-40.23-35.39c-1.12,0.25-2.22,0.69-3.29,1.31l0,0l0,0
				c-1.05,0.62-1.77,1.32-2.16,2.08l0,0l0,0c0.77-0.77,1.77-1.24,3.02-1.42l0,0l0,0C-41.41-33.61-40.6-34.27-40.23-35.39z
				 M-37.58-27.69L-37.58-27.69L-37.58-27.69c0-0.5-0.35-0.69-1.04-0.56l0,0l0,0c-0.69,0.12-1.04,0.31-1.04,0.56l0,0l0,0
				c0.27,0.12,0.61,0.19,1.04,0.19l0,0l0,0C-38.18-27.51-37.83-27.57-37.58-27.69z M-37.21-40.47l0.19-1.31l0,0
				c-1.12-0.5-2-0.31-2.65,0.56l0,0l0,0c-2.12,0.62-3.93,1.51-5.43,2.65l0,0l0,0c-1.51,1.12-3.27,2-5.26,2.62l0,0l0,0
				c-1.02,1-2.15,1.84-3.39,2.54l0,0l0,0c-1.25,0.69-2.37,1.6-3.37,2.73l0,0l0,0c-0.77,0.25-1.61,0.66-2.54,1.23l0,0l0,0
				c-0.94,0.55-1.17,1.2-0.67,1.95l0,0l0,0c0.5-0.62,1.1-1.09,1.79-1.39l0,0l0,0c0.68-0.32,1.34-0.67,1.98-1.04l0,0l0,0
				c0-0.87,0.37-1.25,1.12-1.12l0,0l0,0c0.75,0.12,1.5,0,2.24-0.37l0,0l0,0c0.62-0.5,1.22-1.22,1.79-2.16l0,0l0,0
				c0.57-0.94,1.42-1.17,2.54-0.67l0,0l0,0c0.87-1.12,1.35-1.56,1.42-1.31l0,0l0,0c0.05,0.25,0.2,0.31,0.45,0.19l0,0l0,0
				c0.75-0.75,1.44-1,2.08-0.75l0,0l0,0c1.12-1.25,1.75-1.87,1.87-1.87l0,0l0,0c1-0.25,1.87-0.76,2.62-1.52l0,0l0,0
				C-39.65-40.28-38.58-40.59-37.21-40.47L-37.21-40.47z M34.01,50.85L34.01,50.85L34.01,50.85c-1.64,0.27-3.18,0.8-4.62,1.6l0,0
				l0,0c-1.43,0.82-2.96,1.42-4.6,1.79l0,0l0,0c1.64,1.12,3.33,1.12,5.08,0l0,0l0,0C31.62,53.12,33,51.99,34.01,50.85z
				 M-34.96-33.89L-34.96-33.89L-34.96-33.89c-4.63,2.14-8.52,4.27-11.65,6.39l0,0l0,0c-3.12,2.14-6.49,4.02-10.13,5.64l0,0l0,0
				c-1.02,1.64-2.65,2.83-4.89,3.58l0,0l0,0c0.12,1.62,0.37,2.34,0.75,2.16l0,0l0,0c0.37-0.2,0.75-0.48,1.12-0.86l0,0l0,0
				c0.37-0.37,0.72-0.71,1.04-1.02l0,0l0,0c0.3-0.32,0.78-0.42,1.42-0.29l0,0l0,0c2-1.5,4.09-2.88,6.28-4.14l0,0l0,0
				c2.19-1.25,4.29-2.68,6.31-4.3l0,0l0,0c0.87,0.12,1.5-0.01,1.87-0.4l0,0l0,0c0.37-0.37,0.81-0.81,1.31-1.31l0,0l0,0
				c1.12-0.87,2.41-1.56,3.85-2.06l0,0l0,0C-36.25-31-35.34-32.13-34.96-33.89z M27.44,49.73L27.44,49.73L27.44,49.73
				c-0.52,0.12-0.86,0.1-1.04-0.08l0,0l0,0c-0.2-0.2-0.54-0.23-1.04-0.11l0,0l0,0c0.62,0.62,1.1,0.94,1.42,0.94l0,0l0,0
				C27.09,50.47,27.31,50.23,27.44,49.73z M-52.25-28.26L-52.25-28.26L-52.25-28.26c-0.75,0.5-1.66,1.01-2.73,1.52l0,0l0,0
				c-1.05,0.5-1.64,1.12-1.76,1.87l0,0l0,0c0.75-0.62,1.59-1.1,2.54-1.42l0,0l0,0C-53.28-26.58-52.63-27.24-52.25-28.26z
				 M24.23,23.24L24.23,23.24L24.23,23.24c-0.25-0.25-0.6-0.47-1.04-0.67l0,0l0,0c-0.43-0.18-0.7-0.52-0.83-1.02l0,0l0,0
				c0.25-0.77,0.62-1.4,1.12-1.9l0,0l0,0c0.5-0.5,0.69-1.37,0.56-2.62l0,0l0,0c-0.87,0.12-1.59,0.06-2.16-0.19l0,0l0,0
				c-0.55-0.25-0.89-0.88-1.02-1.9l0,0l0,0c1.25-0.37,2.18-1.06,2.81-2.06l0,0l0,0c-0.5-1-0.87-1.91-1.12-2.73l0,0l0,0
				c-0.25-0.82-0.69-1.73-1.31-2.73l0,0l0,0c-0.77-3.26-2.27-6.2-4.52-8.82l0,0l0,0c-2.26-2.64-4.2-5.27-5.83-7.91l0,0l0,0
				c-1-0.25-1.82-0.62-2.46-1.12l0,0l0,0c-0.62-0.5-1.25-1.06-1.87-1.68l0,0l0,0c-3.14-0.62-6.36-0.85-9.67-0.67l0,0l0,0
				c-3.31,0.2-6.23,0.42-8.74,0.67l0,0l0,0c-2.39,0.62-5.18,1.03-8.36,1.23l0,0l0,0c-3.19,0.18-5.85,0.52-7.99,1.02l0,0l0,0
				c-0.75-0.37-1.56-0.65-2.43-0.83l0,0l0,0c-0.87-0.2-1.62-0.54-2.24-1.04l0,0l0,0c-0.52,0.62-0.74,1.16-0.67,1.6l0,0l0,0
				c0.05,0.43,0.21,0.7,0.48,0.83l0,0l0,0c0.37-0.25,0.94-0.34,1.68-0.27l0,0l0,0c0.75,0.05,1.43,0.08,2.06,0.08l0,0l0,0
				c-0.12,1.89-0.75,2.77-1.87,2.65l0,0l0,0c0,0.75-0.35,1.18-1.04,1.31l0,0l0,0c-0.68,0.12-1.15,0.44-1.42,0.94l0,0l0,0
				c0,1.64,0.26,2.71,0.78,3.21l0,0l0,0c0.87-0.25,1.46-0.37,1.76-0.37l0,0l0,0c0.32,0,0.54,0.19,0.67,0.56l0,0l0,0
				C-31.07-0.81-31.76-0.75-32.5-1l0,0l0,0c-0.77,2-1.18,3.84-1.23,5.53l0,0l0,0c-0.07,1.69-0.04,3.42,0.08,5.18l0,0l0,0
				c0.52-0.37,1.15-0.5,1.9-0.37l0,0l0,0c0.75,0.12,1.37,0.5,1.87,1.12l0,0l0,0c-0.37,1.5-0.94,2.47-1.68,2.91l0,0l0,0
				c-0.75,0.43-1.38,1.09-1.9,1.98l0,0l0,0c0.27,0.62,0.65,0.96,1.15,1.02l0,0l0,0c0.5,0.07,0.75,0.48,0.75,1.23l0,0l0,0
				c-0.37,0.37-0.81,0.81-1.31,1.31l0,0l0,0c-0.52,0.5-0.9,1.03-1.15,1.6l0,0l0,0c-0.25,0.57-0.31,1.17-0.19,1.79l0,0l0,0
				c0.12,0.62,0.51,1.25,1.15,1.87l0,0l0,0c-0.27,0.5-0.53,0.91-0.78,1.23l0,0l0,0c-0.25,0.3-0.44,0.7-0.56,1.2l0,0l0,0
				c0.5,0.64,0.81,1.21,0.94,1.71l0,0l0,0c0.14,0.5,0.34,1,0.59,1.5l0,0l0,0c-0.77,1.5-1.27,2.12-1.52,1.87l0,0l0,0
				c-0.25-0.25-0.37-0.19-0.37,0.19l0,0l0,0c0.12,0.62,0.63,0.91,1.52,0.86l0,0l0,0c0.87-0.07,1.75-0.04,2.62,0.08l0,0l0,0
				c0.75,0.52,1.16,1.02,1.23,1.52l0,0l0,0c0.05,0.5-0.11,0.96-0.48,1.39l0,0l0,0c-0.37,0.45-0.87,0.83-1.5,1.15l0,0l0,0
				c-0.62,0.3-1.18,0.58-1.68,0.83l0,0l0,0c0.12,0.75,0.03,1.26-0.29,1.52l0,0l0,0c-0.32,0.25-0.36,0.69-0.11,1.31l0,0l0,0
				c0.77,0.12,1.21-0.06,1.34-0.56l0,0l0,0c0.12-0.5,0.44-0.82,0.94-0.96l0,0l0,0c-0.5,1.51-0.66,2.42-0.48,2.73l0,0l0,0
				c0.2,0.32,0.17,0.61-0.08,0.86l0,0l0,0c-1.64-0.12-2.46,0.12-2.46,0.75l0,0l0,0c0.12,0.62,0.47,0.97,1.04,1.04l0,0l0,0
				c0.57,0.05,0.98,0.27,1.23,0.64l0,0l0,0c0.25,1.02,0.09,1.67-0.48,1.98l0,0l0,0c-0.55,0.32-0.96,0.86-1.23,1.6l0,0l0,0
				c0.12,1.76,0.63,3.17,1.52,4.22l0,0l0,0c0.87,1.07,1.91,1.85,3.1,2.35l0,0l0,0c1.19,0.5,2.5,0.78,3.93,0.86l0,0l0,0
				c1.44,0.05,2.73,0.02,3.88-0.11l0,0l0,0c-0.27,0.62-0.55,1-0.86,1.12l0,0l0,0c-0.32,0.14-0.54,0.53-0.67,1.15l0,0l0,0
				c1.26,0.5,2.46,0.75,3.58,0.75l0,0l0,0c1.12,0,2.18-0.06,3.18-0.19l0,0l0,0c1.02-0.12,2.08-0.19,3.21-0.19l0,0l0,0
				c1.12,0,2.44,0.25,3.96,0.75l0,0l0,0c2.87-0.87,5.56-1.53,8.07-1.98l0,0l0,0c2.51-0.45,4.89-1.07,7.14-1.87l0,0l0,0
				c2.26-0.82,4.3-1.89,6.12-3.21l0,0l0,0c1.82-1.32,3.29-2.91,4.41-4.78l0,0l0,0c0.87-1.12,1.56-1.75,2.06-1.87l0,0l0,0
				c0.5-0.12,0.62-0.57,0.37-1.34l0,0l0,0c-0.87,0.12-1.66,0.31-2.35,0.56l0,0l0,0c-0.68,0.27-1.39,0.53-2.14,0.78l0,0l0,0
				c-0.64-0.25-0.78-0.85-0.4-1.79l0,0l0,0c0.39-0.94,1.02-1.23,1.9-0.86l0,0l0,0c0.25-1,0.75-1.72,1.5-2.16l0,0l0,0
				c0.75-0.43,1.62-0.77,2.62-1.02l0,0l0,0c0.64-0.64,1.15-1.4,1.52-2.27l0,0l0,0c0.37-0.87,0.25-1.81-0.37-2.81l0,0l0,0
				c0.5-0.62,1-1.26,1.5-1.9l0,0l0,0c0.5-0.62,0.69-1.62,0.56-2.99l0,0l0,0c-0.25-0.25-0.62-0.37-1.12-0.37l0,0l0,0
				c-0.5,0-0.75-0.31-0.75-0.94l0,0l0,0c0-0.5,0.19-0.91,0.56-1.23l0,0l0,0c0.37-0.32,0.75-0.63,1.12-0.94l0,0l0,0
				c0.37-0.32,0.66-0.69,0.86-1.12l0,0l0,0C24.52,24.77,24.48,24.12,24.23,23.24z M-36.27-24.49l0.56-1.68l0,0
				c-0.75-0.25-1.31-0.29-1.68-0.11l0,0l0,0c-0.37,0.2-1,0.17-1.87-0.08l0,0l0,0c-0.52,1-0.93,1.52-1.23,1.58l0,0l0,0
				c-0.32,0.07-0.67-0.02-1.04-0.27l0,0l0,0c-3.76,2.37-6.98,4.5-9.67,6.39l0,0l0,0c-2.69,1.87-5.35,3.88-7.99,6.01l0,0l0,0
				c-0.5,0.87-1.06,1.35-1.68,1.42l0,0l0,0c-0.62,0.05-0.94,0.52-0.94,1.39l0,0l0,0c1.37-0.75,2.37-1.37,2.99-1.87l0,0l0,0
				c0.62,0,1.06-0.16,1.31-0.48l0,0l0,0c0.27-0.3,0.59-0.58,0.96-0.83l0,0l0,0c1.37-0.62,2.59-1.38,3.66-2.27l0,0l0,0
				c1.07-0.87,2.1-1.62,3.1-2.24l0,0l0,0c0.62-0.5,1.31-0.85,2.06-1.04l0,0l0,0c0.75-0.18,1.5-0.45,2.24-0.83l0,0l0,0
				c1.02-0.62,1.92-1.26,2.73-1.9l0,0l0,0c0.82-0.62,1.73-1,2.73-1.12l0,0l0,0c0.64-0.12,1.34-0.25,2.08-0.37l0,0l0,0
				c0.12-0.62,0.37-0.96,0.75-1.02l0,0l0,0C-36.83-23.89-36.52-24.11-36.27-24.49L-36.27-24.49z M-35.71-8.69L-35.71-8.69
				L-35.71-8.69c-0.87-1.39-1.56-1.86-2.06-1.42l0,0l0,0c-0.5,0.43-0.94,0.93-1.31,1.5l0,0l0,0c-0.39,0.57-0.8,1.1-1.23,1.6l0,0l0,0
				c-0.45,0.5-1.04,0.75-1.79,0.75l0,0l0,0c-0.25,0.75-0.85,1.16-1.79,1.23l0,0l0,0c-0.93,0.05-1.46,0.52-1.6,1.39l0,0l0,0
				c1.89-0.62,3.58-1.37,5.08-2.24l0,0l0,0C-38.9-6.76-37.33-7.7-35.71-8.69z M-37.21-20.16L-37.21-20.16L-37.21-20.16
				c-0.37,0.25-0.91,0.4-1.6,0.45l0,0l0,0c-0.69,0.07-1.17,0.23-1.42,0.48l0,0l0,0c-1,0.37-1.93,0.81-2.81,1.31l0,0l0,0
				c-0.87,0.5-1.62,1-2.24,1.5l0,0l0,0c-1.02,0.75-1.96,1.35-2.83,1.79l0,0l0,0c-0.87,0.45-1.75,0.92-2.62,1.42l0,0l0,0
				c-2.64,2.89-5.83,5.39-9.59,7.51l0,0l0,0c-1.12-0.25-1.75-0.09-1.87,0.48l0,0l0,0C-62.31-4.67-62.25-4.2-62-3.83l0,0l0,0
				c1.5-0.37,2.81-1.12,3.93-2.24l0,0l0,0c1.14-1.12,2.65-1.93,4.52-2.43l0,0l0,0c1-0.77,2.03-1.67,3.1-2.73l0,0l0,0
				c1.07-1.07,2.66-1.67,4.78-1.79l0,0l0,0c0.39-0.87,0.96-1.59,1.71-2.16l0,0l0,0c0.75-0.57,1.53-1.1,2.35-1.6l0,0l0,0
				c0.8-0.5,1.61-1,2.43-1.5l0,0l0,0C-38.37-18.79-37.71-19.41-37.21-20.16z M-42.1-3.08L-42.1-3.08L-42.1-3.08
				c-0.37,0.14-0.75,0.24-1.12,0.29l0,0l0,0c-0.37,0.07-0.62,0.42-0.75,1.04l0,0l0,0c0.37-0.12,0.81-0.31,1.31-0.56l0,0l0,0
				C-42.16-2.56-41.97-2.81-42.1-3.08z M17.66,54.24L17.66,54.24L17.66,54.24c-1.75,0.62-3.19,1.37-4.33,2.24l0,0l0,0
				c-1.12,0.89-2.62,1.46-4.49,1.71l0,0l0,0c-0.14,0.87,0.2,1.27,1.02,1.2l0,0l0,0c0.82-0.05,1.54-0.08,2.16-0.08l0,0l0,0
				c0.5-0.87,1.25-1.5,2.24-1.87l0,0l0,0c1.02-0.39,2.02-0.71,3.02-0.96l0,0l0,0c0-0.62,0.03-1.06,0.08-1.31l0,0l0,0
				C17.43,54.93,17.53,54.62,17.66,54.24z M-36.83-1.75L-36.83-1.75L-36.83-1.75c-0.25-0.12-0.56,0.06-0.94,0.56l0,0l0,0
				c-0.37,0.5-0.94,0.62-1.71,0.37l0,0l0,0c-0.12,0.87-0.56,1.47-1.31,1.79l0,0l0,0c-0.75,0.3-1.43,0.27-2.06-0.11l0,0l0,0
				c-0.12,0.62-0.62,1.28-1.5,1.98l0,0l0,0C-45.24,3.53-46.12,3.7-47,3.32l0,0l0,0c-0.25,1.12-0.97,1.87-2.16,2.24l0,0l0,0
				c-1.18,0.37-2.21,0.69-3.1,0.94l0,0l0,0c0.12,0.62-0.28,1.1-1.2,1.42l0,0l0,0c-0.94,0.3-1.6,0.64-1.98,1.02l0,0l0,0
				c-0.37,0.64-0.78,1.09-1.23,1.34l0,0l0,0c-0.43,0.25-0.86,0.46-1.31,0.64l0,0l0,0c-0.45,0.2-0.88,0.29-1.31,0.29l0,0l0,0
				c-0.45,0-0.92-0.25-1.42-0.75l0,0l0,0c0.87-1.14,1.81-2.15,2.81-3.02l0,0l0,0c1.02-0.87,2.27-1.62,3.77-2.24l0,0l0,0
				c1-1,2.16-1.82,3.47-2.46l0,0l0,0c1.32-0.62,2.48-1.43,3.47-2.43l0,0l0,0c0.37-0.25,0.85-0.41,1.42-0.48l0,0l0,0
				c0.57-0.05,0.79-0.39,0.67-1.02l0,0l0,0c-1.64,0.25-3.12,0.94-4.44,2.06l0,0l0,0c-1.32,1.12-2.66,2.07-4.04,2.83l0,0l0,0
				c-0.75,0.37-1.68,0.44-2.81,0.19l0,0l0,0c-1.14-0.25-1.84-0.76-2.08-1.52l0,0l0,0c-0.25-1,0.16-1.84,1.23-2.54l0,0l0,0
				c1.07-0.68,1.92-1.08,2.54-1.2l0,0l0,0c0.5-0.75,1.1-1.35,1.79-1.79l0,0l0,0c0.68-0.45,1.27-0.98,1.79-1.6l0,0l0,0
				c0.75,0,1.37-0.19,1.87-0.56l0,0l0,0c0.5-0.37,0.94-0.78,1.31-1.23l0,0l0,0c0.37-0.43,0.81-0.77,1.31-1.02l0,0l0,0
				c0.5-0.25,1.26-0.31,2.27-0.19l0,0l0,0c2.99-1.76,5.43-3.71,7.32-5.83l0,0l0,0c-2.89,0.62-4.86,1.41-5.93,2.35l0,0l0,0
				c-1.05,0.93-2.52,1.51-4.41,1.76l0,0l0,0c-0.12,0.89-0.53,1.43-1.23,1.6l0,0l0,0c-0.68,0.2-1.26,0.42-1.76,0.67l0,0l0,0
				c-1.26,0.87-2.46,1.84-3.58,2.91l0,0l0,0c-1.12,1.07-2.18,2.04-3.18,2.91l0,0l0,0c-2.01,0.87-3.71,2.31-5.08,4.3l0,0l0,0
				c0.5,2.14,0.56,3.96,0.19,5.45l0,0l0,0c-0.37,1.51-0.31,3.39,0.19,5.64l0,0l0,0c1.37-0.37,2.49-0.56,3.37-0.56l0,0l0,0
				c0.89,0,1.65-0.19,2.27-0.56l0,0l0,0c1.12-1.12,2.22-2.06,3.29-2.81l0,0l0,0c1.07-0.77,2.29-1.15,3.66-1.15l0,0l0,0
				c0.75-0.37,1.47-0.5,2.16-0.37l0,0l0,0c0.68,0.12,0.89-0.12,0.64-0.75l0,0l0,0c-0.37-0.25-0.34-0.65,0.11-1.2l0,0l0,0
				c0.43-0.57,0.96-0.67,1.6-0.29l0,0l0,0c0.87-0.87,1.75-1.5,2.62-1.87l0,0l0,0c0.87-0.37,1.62-0.88,2.24-1.52l0,0l0,0
				c1.02-0.25,1.77-0.56,2.27-0.94l0,0l0,0c0.5-0.37,0.9-0.78,1.2-1.2l0,0l0,0c0.32-0.45,0.48-0.86,0.48-1.23l0,0l0,0
				C-35.9-0.81-36.21-1.25-36.83-1.75z M-36.09,4.08L-36.09,4.08L-36.09,4.08c-2,0.5-3.5,0.9-4.52,1.2l0,0l0,0
				c-1,0.32-1.93,0.86-2.81,1.6l0,0l0,0c-1,1.12-1.41,1.75-1.23,1.87l0,0l0,0c0.2,0.12,0.23,0.38,0.11,0.78l0,0l0,0
				c-0.77,0.75-1.55,1.25-2.35,1.5l0,0l0,0c-0.82,0.25-1.48,0.06-1.98-0.56l0,0l0,0c0.12,0.87-0.22,1.18-1.04,0.94l0,0l0,0
				c-0.8-0.25-1.34-0.19-1.6,0.19l0,0l0,0c-0.12,1-0.44,1.41-0.94,1.23l0,0l0,0c-0.5-0.2-1-0.04-1.5,0.45l0,0l0,0
				c-1,1.26-2.22,2.15-3.66,2.65l0,0l0,0c-1.44,0.5-2.54,1.25-3.29,2.24l0,0l0,0c0.37,1,0.94,1.31,1.68,0.94l0,0l0,0
				c0.75-0.37,1.44-0.62,2.08-0.75l0,0l0,0c0.37-0.37,0.69-0.72,0.94-1.04l0,0l0,0c0.25-0.3,0.69-0.58,1.31-0.83l0,0l0,0
				c1.62-1.02,3.06-1.99,4.33-2.91l0,0l0,0c1.25-0.94,2.62-1.35,4.12-1.23l0,0l0,0c-0.12-0.62,0.16-0.94,0.86-0.94l0,0l0,0
				c0.69,0,1.29,0,1.79,0l0,0l0,0c0.12-0.87,0.59-1.37,1.39-1.5l0,0l0,0c0.82-0.12,1.23-0.69,1.23-1.71l0,0l0,0
				c0.62-0.75,1.06-1.15,1.31-1.2l0,0l0,0c0.25-0.07,0.45-0.23,0.59-0.48l0,0l0,0C-36.9,5.76-35.84,4.95-36.09,4.08z M-42.66,20.78
				L-42.66,20.78L-42.66,20.78c-0.25-0.25-0.5-0.25-0.75,0l0,0l0,0c-0.25,0.27-0.69,0.27-1.31,0l0,0l0,0
				c0.25,0.52,0.69,0.8,1.31,0.86l0,0l0,0C-42.78,21.71-42.54,21.43-42.66,20.78z M-36.27,12.71L-36.27,12.71L-36.27,12.71
				c-1.75-0.5-3.38-0.56-4.89-0.19l0,0l0,0c-1.5,0.37-2.56,1.12-3.18,2.24l0,0l0,0c-0.62-0.12-1.32,0.04-2.08,0.48l0,0l0,0
				c-0.75,0.45-1.5,0.54-2.24,0.29l0,0l0,0c-0.87,1.25-1.28,1.96-1.23,2.14l0,0l0,0c0.07,0.2-0.02,0.29-0.27,0.29l0,0l0,0
				c-0.62,0.12-1.13,0.35-1.52,0.67l0,0l0,0c-0.37,0.3-0.75,0.58-1.12,0.83l0,0l0,0c-0.37,0.25-0.75,0.5-1.12,0.75l0,0l0,0
				c-0.37,0.25-0.87,0.31-1.5,0.19l0,0l0,0c-0.62,0.64-1.25,1.02-1.87,1.15l0,0l0,0c-0.52,0.87-0.99,1.52-1.42,1.95l0,0l0,0
				c-0.45,0.45-1.04,0.48-1.79,0.11l0,0l0,0c0.25,0.62,0.09,1.16-0.48,1.6l0,0l0,0c-0.55,0.43-0.83,1.15-0.83,2.16l0,0l0,0
				c1.75-0.89,3.38-1.9,4.89-3.02l0,0l0,0c1.5-1.12,3.3-2,5.43-2.62l0,0l0,0c0.27-0.64,0.8-1.15,1.6-1.52l0,0l0,0
				c0.82-0.37,1.54-0.5,2.16-0.37l0,0l0,0c1.64-1.5,3.52-2.72,5.64-3.66l0,0l0,0C-39.96,15.24-38.02,14.08-36.27,12.71z
				 M-39.67,25.86l0.59-1.12l0,0c-1.51,0.25-2.52,0.47-3.02,0.67l0,0l0,0c-0.5,0.18-0.97,0.43-1.42,0.75l0,0l0,0
				c-0.43,0.3-0.93,0.61-1.5,0.94l0,0l0,0c-0.57,0.32-1.17,0.36-1.79,0.11l0,0l0,0c-1.62,0.87-2.97,1.71-4.04,2.51l0,0l0,0
				c-1.07,0.82-2.35,1.48-3.85,1.98l0,0l0,0c-0.75,1.51-1.82,2.08-3.21,1.71l0,0l0,0c0.12,0.5,0,0.9-0.37,1.2l0,0l0,0
				c-0.37,0.32-0.81,0.61-1.31,0.86l0,0l0,0c-0.5,0.25-0.97,0.56-1.42,0.94l0,0l0,0c-0.43,0.37-0.7,0.81-0.83,1.31l0,0l0,0
				c0.87,0,1.66-0.46,2.35-1.39l0,0l0,0c0.68-0.94,1.52-1.29,2.54-1.04l0,0l0,0c0.25-0.62,0.87-1.18,1.87-1.68l0,0l0,0
				c1-0.52,1.81-0.45,2.43,0.19l0,0l0,0c-0.12-0.64,0.04-1.18,0.48-1.6l0,0l0,0c0.43-0.45,0.93-0.79,1.5-1.04l0,0l0,0
				c0.57-0.25,1.19-0.44,1.87-0.56l0,0l0,0c0.69-0.12,1.29-0.19,1.79-0.19l0,0l0,0c1.64-0.87,2.92-1.75,3.85-2.62l0,0l0,0
				C-42.2,26.87-41.04,26.24-39.67,25.86L-39.67,25.86z M-41.54,30.94L-41.54,30.94L-41.54,30.94c-1,1.12-2.09,1.75-3.29,1.87l0,0
				l0,0c-1.19,0.12-2.04,0.63-2.54,1.52l0,0l0,0c-1.62,0.87-2.9,1.53-3.85,1.98l0,0l0,0c-0.94,0.43-1.42,1.02-1.42,1.76l0,0l0,0
				c0.75,0.25,1.47,0,2.16-0.75l0,0l0,0c0.69-0.75,1.42-1,2.16-0.75l0,0l0,0c0.37-0.75,0.94-1.28,1.68-1.6l0,0l0,0
				c0.75-0.3,1.63-0.58,2.65-0.83l0,0l0,0c0.25-0.12,0.46-0.37,0.64-0.75l0,0l0,0c0.2-0.39,0.67-0.45,1.42-0.19l0,0l0,0
				c-0.12-0.52-0.03-0.86,0.29-1.04l0,0l0,0C-41.31,31.97-41.29,31.56-41.54,30.94z M-37.96,47.11L-37.96,47.11L-37.96,47.11
				c-0.87-0.12-1.53-0.19-1.98-0.19l0,0l0,0c-0.45,0-0.92,0.06-1.42,0.19l0,0l0,0c1,1.12,1.62,1.43,1.87,0.94l0,0l0,0
				C-39.21,47.54-38.7,47.23-37.96,47.11z M-31.57,58.01L-31.57,58.01L-31.57,58.01c-0.12-0.12-0.44-0.51-0.94-1.15l0,0l0,0
				c-0.5-0.62-1.07-1.21-1.71-1.76l0,0l0,0c-0.62-0.57-1.21-0.98-1.76-1.23l0,0l0,0c-0.57-0.25-0.98-0.12-1.23,0.37l0,0l0,0
				c0,1,0.35,1.5,1.04,1.5l0,0l0,0c0.68,0,1.02,0.31,1.02,0.94l0,0l0,0c-0.87,0.52-1.5,0.8-1.87,0.86l0,0l0,0
				c-0.37,0.07-0.5,0.23-0.37,0.48l0,0l0,0c0.62,0.25,1.66,0.44,3.1,0.56l0,0l0,0C-32.85,58.7-31.94,58.51-31.57,58.01z
				 M-61.63,30.94l1.12-0.56l0,0c-0.5-1-0.78-1.56-0.86-1.68l0,0l0,0c-0.05-0.12-0.2-0.19-0.45-0.19l0,0l0,0
				c0.25,0.5,0.28,0.94,0.08,1.31l0,0l0,0C-61.92,30.19-61.88,30.56-61.63,30.94L-61.63,30.94z M-37.58,36.2L-37.58,36.2
				L-37.58,36.2c-2.89,1.12-5.33,1.75-7.32,1.87l0,0l0,0c0,1.14-0.57,1.74-1.71,1.79l0,0l0,0c-1.12,0.07-1.93,0.29-2.43,0.67l0,0
				l0,0c0.25,1-0.44,1.37-2.06,1.12l0,0l0,0c-0.27,1-0.9,1.66-1.9,1.98l0,0l0,0c-1,0.3-2.06,0.58-3.18,0.83l0,0l0,0
				c0.12,0.52-0.06,0.99-0.56,1.42l0,0l0,0c-0.52,0.45-1.09,0.86-1.71,1.23l0,0l0,0c-0.62,0.37-1.21,0.81-1.76,1.31l0,0l0,0
				c-0.57,0.5-0.86,1.06-0.86,1.68l0,0l0,0c1-0.37,1.84-0.87,2.54-1.5l0,0l0,0c0.68-0.62,1.52-1.06,2.54-1.31l0,0l0,0
				c0.62-1,1.41-1.62,2.35-1.87l0,0l0,0c0.93-0.27,1.9-0.59,2.91-0.96l0,0l0,0c1.62-0.62,3.18-1.5,4.68-2.62l0,0l0,0
				c1.51-1.12,3.02-1.93,4.52-2.43l0,0l0,0c0.37-0.77,1.06-1.24,2.06-1.42l0,0l0,0C-38.46,37.8-37.83,37.2-37.58,36.2z
				 M-53.38,37.14L-53.38,37.14L-53.38,37.14c0.12,0.62-0.03,0.97-0.45,1.04l0,0l0,0c-0.45,0.05-0.79,0.4-1.04,1.04l0,0l0,0
				c0.87,0.12,1.5-0.1,1.87-0.67l0,0l0,0C-52.63,37.99-52.75,37.51-53.38,37.14z M-55.25,39.22L-55.25,39.22L-55.25,39.22
				c-2.64,1.87-4.77,1.61-6.39-0.78l0,0l0,0c-0.12,1.14-0.22,2.11-0.29,2.91l0,0l0,0c-0.05,0.82,0.04,1.67,0.29,2.54l0,0l0,0
				c1-0.37,1.91-1,2.73-1.87l0,0l0,0c0.8-0.87,1.71-1.06,2.73-0.56l0,0l0,0c-0.12-0.62,0.03-1,0.45-1.12l0,0l0,0
				C-55.28,40.22-55.12,39.85-55.25,39.22z M-37.21,53.49l0.37-1.5l0,0c-1.5-1.02-2.57-1.2-3.21-0.56l0,0l0,0
				c-0.62,0.62-1.31,0.81-2.06,0.56l0,0l0,0c-0.62,1-1.03,1.4-1.23,1.2l0,0l0,0c-0.18-0.18-0.39-0.2-0.64-0.08l0,0l0,0
				c-1.14,0.75-1.92,1.31-2.35,1.68l0,0l0,0c-0.45,0.37-0.92,0.75-1.42,1.12l0,0l0,0c-0.5,0.37-1,0.69-1.5,0.94l0,0l0,0
				c-0.5,0.27-1.12,0.27-1.87,0l0,0l0,0c-0.52,0.39-0.93,0.53-1.23,0.4l0,0l0,0c-0.32-0.14-0.61-0.34-0.86-0.59l0,0l0,0
				c0.62-1.12,1.18-1.96,1.68-2.51l0,0l0,0c0.52-0.57,1.27-0.79,2.27-0.67l0,0l0,0c1.12-1,2.34-1.72,3.66-2.16l0,0l0,0
				c1.32-0.45,2.6-1.17,3.85-2.16l0,0l0,0c-1.25,0-2.59,0.16-4.04,0.48l0,0l0,0c-1.44,0.3-2.6,0.96-3.47,1.98l0,0l0,0
				c-1.25,0.5-2.25,1.12-3.02,1.87l0,0l0,0c-0.75,0.75-1.87,1.18-3.37,1.31l0,0l0,0c-0.62,1.12-1.28,1.68-1.98,1.68l0,0l0,0
				c-0.69,0-1.17,0.19-1.42,0.56l0,0l0,0c-0.62,0.27-1.1,0.18-1.42-0.27l0,0l0,0c-0.3-0.45-0.45-1.1-0.45-1.98l0,0l0,0
				c1-0.62,1.68-1.06,2.06-1.31l0,0l0,0c0.37-0.25,0.94-0.44,1.71-0.56l0,0l0,0c1.25-0.62,1.77-1,1.58-1.12l0,0l0,0
				c-0.18-0.12-0.14-0.25,0.11-0.37l0,0l0,0c1.12-0.64,1.78-0.9,1.98-0.78l0,0l0,0c0.18,0.12,0.45,0.19,0.83,0.19l0,0l0,0
				c0-0.62,0.29-1,0.86-1.12l0,0l0,0c0.57-0.12,1.04-0.12,1.42,0l0,0l0,0c0-1.12,0.53-1.68,1.58-1.68l0,0l0,0
				c1.07,0,1.85-0.44,2.35-1.31l0,0l0,0c0.5,0.25,0.91,0.28,1.23,0.08l0,0l0,0c0.32-0.18,0.61-0.37,0.86-0.56l0,0l0,0
				c0.25-0.18,0.5-0.37,0.75-0.56l0,0l0,0c0.25-0.18,0.56-0.14,0.94,0.11l0,0l0,0c0.12-0.64,0.47-1.05,1.04-1.23l0,0l0,0
				c0.55-0.2,1.08-0.11,1.58,0.27l0,0l0,0c0.25-0.75,0.72-1.27,1.42-1.58l0,0l0,0c0.69-0.32,1.04-0.98,1.04-1.98l0,0l0,0
				c-2.14,0.5-4.08,1.25-5.83,2.24l0,0l0,0c-1.39,0.62-2.55,1.16-3.47,1.6l0,0l0,0c-0.94,0.45-1.92,0.79-2.91,1.04l0,0l0,0
				c-1.64,0.75-2.71,1.75-3.21,2.99l0,0l0,0c-1.37-0.12-2.47,0.31-3.29,1.31l0,0l0,0c-0.82,1.02-1.73,1.52-2.73,1.52l0,0l0,0
				c-1,1.37-2.22,2.47-3.66,3.29l0,0l0,0c-1.44,0.8-2.54,2.08-3.29,3.85l0,0l0,0c0.75,0.5,1.43,0.71,2.06,0.64l0,0l0,0
				c0.64-0.05,1.59-0.08,2.83-0.08l0,0l0,0c0.62-0.12,1.35-0.25,2.16-0.37l0,0l0,0c0.8-0.12,1.52-0.19,2.16-0.19l0,0l0,0
				c0.87,0.12,1.75,0.28,2.62,0.45l0,0l0,0c0.87,0.2,1.68,0.29,2.43,0.29l0,0l0,0c0.27-0.12,0.59-0.29,0.96-0.48l0,0l0,0
				c0.37-0.18,0.75-0.27,1.12-0.27l0,0l0,0c1.25,0.25,2.62,0.25,4.12,0l0,0l0,0c1.51-0.25,2.9-0.44,4.14-0.56l0,0l0,0
				c0.62-0.12,1.25-0.1,1.87,0.08l0,0l0,0c0.64,0.2,1.21-0.02,1.71-0.64l0,0l0,0c-0.75-0.64-1.44-0.93-2.08-0.86l0,0l0,0
				c-0.62,0.07-0.94,0.29-0.94,0.67l0,0l0,0c-1.12-0.89-1.62-1.46-1.5-1.71l0,0l0,0c0.12-0.25,0.19-0.62,0.19-1.12l0,0l0,0
				c1.5-0.37,2.16-0.65,1.98-0.83l0,0l0,0c-0.2-0.2-0.17-0.42,0.08-0.67l0,0l0,0c0.25,0.5,0.69,0.72,1.34,0.67l0,0l0,0
				C-38.08,54.09-37.58,53.87-37.21,53.49L-37.21,53.49z M46.97,10.84l0.19,1.12l0,0c-0.37-0.62-0.72-0.78-1.04-0.48l0,0l0,0
				c-0.3,0.32-0.64,0.61-1.02,0.86l0,0l0,0c-1.02,0.5-1.92,1.03-2.73,1.6l0,0l0,0c-0.82,0.55-1.48,0.33-1.98-0.67l0,0l0,0
				c2.12-0.37,3.63-1.18,4.52-2.43l0,0H46.97z M40.03,14.21L40.03,14.21L40.03,14.21c-0.62,0.77-1.07,1.21-1.34,1.34l0,0l0,0
				c-0.25,0.12-0.5,0.28-0.75,0.45l0,0l0,0c-0.25,0.2-0.5,0.36-0.75,0.48l0,0l0,0c-0.25,0.12-0.56,0.06-0.94-0.19l0,0l0,0
				c0.5-0.62,1.1-1.03,1.79-1.23l0,0l0,0C38.74,14.87,39.4,14.58,40.03,14.21z M35.7,16.48L35.7,16.48L35.7,16.48
				c-0.87,0.87-1.5,1.34-1.87,1.39l0,0l0,0c-0.37,0.07-0.5-0.08-0.37-0.45l0,0l0,0c0.5-0.12,0.87-0.31,1.12-0.56l0,0l0,0
				C34.82,16.61,35.2,16.48,35.7,16.48z"/>
		</g>
	</g>
	<g transform="scale(1) translate(0,0.000009155273431815658)">
		<g transform="scale(1) translate(230.18499779701233,341.7100004196167)">
			<path d="M-122.31,57.27h7.67c1.99,0,3.63-1.67,3.63-3.63v-3.97c0-1.82-1.48-2.96-2.81-3.15c1.07-0.26,2.28-1.33,2.28-2.99v-3.67
				c0-1.96-1.67-3.63-3.66-3.63h-7.12v21.04H-122.31z M-118.58,53.86V48h2.64c0.69,0,1.22,0.59,1.22,1.27v3.33
				c0,0.66-0.52,1.25-1.22,1.25h-2.64V53.86z M-118.58,45.15v-5.74h2.12c0.71,0,1.22,0.6,1.22,1.27v3.26c0,0.66-0.51,1.22-1.22,1.22
				h-2.12V45.15z M-103.85,54.15c0,1.93,1.56,3.49,3.49,3.49h3.63c1.96,0,3.52-1.56,3.52-3.49v-9.32c0-1.93-1.56-3.52-3.52-3.52
				h-3.63c-1.93,0-3.49,1.59-3.49,3.52V54.15z M-100.48,53.38v-7.81c0-0.56,0.45-1.08,1-1.08h1.85c0.6,0,1.03,0.52,1.03,1.08v7.81
				c0,0.56-0.43,1.11-1.03,1.11h-1.85C-100.03,54.49-100.48,53.93-100.48,53.38z M-86.05,54.15c0,1.93,1.56,3.49,3.47,3.49h3.64
				c1.96,0,3.52-1.56,3.52-3.49v-9.32c0-1.93-1.56-3.52-3.52-3.52h-3.64c-1.91,0-3.47,1.59-3.47,3.52V54.15z M-82.68,53.38v-7.81
				c0-0.56,0.45-1.08,1-1.08h1.85c0.59,0,1.03,0.52,1.03,1.08v7.81c0,0.56-0.45,1.11-1.03,1.11h-1.85
				C-82.23,54.49-82.68,53.93-82.68,53.38z M-64.73,57.27v-6.3l3.84,6.3h3.71l-4.77-7.97l4.63-7.63h-3.46l-3.95,6.51V33.63h-3.52
				v23.64H-64.73z M-52.42,54.09c0,1.96,1.64,3.55,3.63,3.55h2.75c1.96,0,3.6-1.59,3.6-3.55v-2.22c0-1.3-0.85-2.41-2.12-2.86
				l-3.86-1.4c-0.37-0.12-0.62-0.52-0.62-0.9v-1.19c0-0.51,0.4-1,0.99-1h1.34c0.56,0,1.03,0.49,1.03,1v1.3h3.23v-1.93
				c0-1.96-1.64-3.58-3.6-3.58h-2.75c-1.99,0-3.63,1.62-3.63,3.58v2.22c0,1.3,0.85,2.41,2.15,2.86l3.86,1.4
				c0.37,0.12,0.63,0.52,0.63,0.93v1.16c0,0.48-0.45,1-1.03,1h-1.3c-0.56,0-1.08-0.52-1.08-1v-1.3h-3.23L-52.42,54.09L-52.42,54.09z
				 M-22.06,44.56h2.93v-2.89h-2.93v-3.86c0-0.56,0.49-1.11,1.08-1.11h2.22v-3.07h-3.3c-1.91,0-3.52,1.59-3.52,3.52v4.52h-1.99v2.89
				h1.99V61.5c0,0.56-0.48,1.11-1.07,1.11h-0.85v3.07h1.91c1.93,0,3.52-1.59,3.52-3.52v-17.6H-22.06z M-13.7,54.15
				c0,1.93,1.56,3.49,3.49,3.49h3.63c1.96,0,3.52-1.56,3.52-3.49v-9.32c0-1.93-1.56-3.52-3.52-3.52h-3.63
				c-1.93,0-3.49,1.59-3.49,3.52V54.15z M-10.32,53.38v-7.81c0-0.56,0.43-1.08,0.99-1.08h1.85c0.6,0,1.05,0.52,1.05,1.08v7.81
				c0,0.56-0.45,1.11-1.05,1.11h-1.85C-9.89,54.49-10.32,53.93-10.32,53.38z M7.62,57.27V46.04c0-0.71,0.56-1.3,1.22-1.3h2.08v-3.3
				h-1c-1.11,0-2.01,0.74-2.38,1.27l-0.22-1.03H4.1v15.59C4.1,57.27,7.62,57.27,7.62,57.27z M26.17,54.15
				c0,1.93,1.54,3.49,3.52,3.49h3.4c1.98,0,3.52-1.56,3.52-3.49v-2.1H33.4v1.33c0,0.56-0.45,1.11-1.05,1.11h-1.78
				c-0.59,0-1.03-0.56-1.03-1.11v-3.15h7.07v-5.4c0-1.93-1.54-3.52-3.52-3.52h-3.4c-1.98,0-3.52,1.59-3.52,3.52V54.15z M29.54,47.97
				v-2.41c0-0.56,0.45-1.08,1.03-1.08h1.78c0.6,0,1.05,0.52,1.05,1.08v2.41H29.54z M49.85,41.67l-2.25,9.26l-2.3-9.26h-3.57
				l4.63,15.59h2.45l4.63-15.59H49.85z M58.76,54.15c0,1.93,1.56,3.49,3.52,3.49h3.41c1.96,0,3.52-1.56,3.52-3.49v-2.1h-3.23v1.33
				c0,0.56-0.45,1.11-1.03,1.11h-1.79c-0.59,0-1.03-0.56-1.03-1.11v-3.15h7.09v-5.4c0-1.93-1.56-3.52-3.52-3.52h-3.41
				c-1.96,0-3.52,1.59-3.52,3.52v9.32H58.76z M62.13,47.97v-2.41c0-0.56,0.45-1.08,1.03-1.08h1.79c0.59,0,1.03,0.52,1.03,1.08v2.41
				H62.13z M79.71,57.27V46.04c0-0.71,0.56-1.3,1.22-1.3H83v-3.3h-1c-1.11,0-1.99,0.74-2.36,1.27l-0.23-1.03H76.2v15.59
				C76.2,57.27,79.71,57.27,79.71,57.27z M88.05,65.31h3.6l6.72-23.64h-3.6L92.49,51l-2.25-9.32h-3.6l4.23,14.48L88.05,65.31z
				 M103.67,54.15c0,1.93,1.54,3.49,3.47,3.49h3.63c1.98,0,3.52-1.56,3.52-3.49v-9.32c0-1.93-1.54-3.52-3.52-3.52h-3.63
				c-1.93,0-3.47,1.59-3.47,3.52V54.15z M107.04,53.38v-7.81c0-0.56,0.45-1.08,1-1.08h1.85c0.59,0,1.03,0.52,1.03,1.08v7.81
				c0,0.56-0.45,1.11-1.03,1.11h-1.85C107.48,54.49,107.04,53.93,107.04,53.38z M125.02,57.27V45.89c0-0.66,0.51-1.3,1.19-1.3h1.44
				c0.6,0,1.03,0.52,1.03,1.11v11.56h3.52v-12.4c0-1.96-1.54-3.55-3.52-3.55h-1.36c-1.16,0-2.01,0.77-2.41,1.3l-0.19-0.93h-3.27
				v15.59H125.02z M139.36,54.15c0,1.93,1.56,3.49,3.52,3.49h3.41c1.96,0,3.52-1.56,3.52-3.49v-2.1h-3.23v1.33
				c0,0.56-0.43,1.11-1.03,1.11h-1.78c-0.59,0-1.03-0.56-1.03-1.11v-3.15h7.07v-5.4c0-1.93-1.56-3.52-3.52-3.52h-3.41
				c-1.96,0-3.52,1.59-3.52,3.52L139.36,54.15L139.36,54.15z M142.74,47.97v-2.41c0-0.56,0.45-1.08,1.03-1.08h1.78
				c0.6,0,1.03,0.52,1.03,1.08v2.41H142.74z"/>
		</g>
	</g>
</g>
</svg>
