<?xml version="1.0" encoding="utf-8"?>
<!-- Generator: Adobe Illustrator 23.0.0, SVG Export Plug-In . SVG Version: 6.00 Build 0)  -->
<svg version="1.1" id="Layer_1" xmlns="http://www.w3.org/2000/svg" xmlns:xlink="http://www.w3.org/1999/xlink" x="0px" y="0px"
	 viewBox="0 0 80 15" style="enable-background:new 0 0 80 15;" xml:space="preserve">
<style type="text/css">
	.st0{fill:#F9A30B;}
</style>
<polygon class="st0" points="24.02,0 26.49,4.94 32.02,5.73 28.02,9.57 28.96,15 24.02,12.44 19.07,15 20.01,9.57 16.01,5.73 
	21.54,4.94 "/>
<polygon class="st0" points="8.01,0 10.48,4.94 16.01,5.73 12.01,9.57 12.95,15 8.01,12.44 3.06,15 4,9.57 0,5.73 5.53,4.94 "/>
<polygon class="st0" points="40,0 42.47,4.94 48.01,5.73 44,9.57 44.95,15 40,12.44 35.05,15 36,9.57 31.99,5.73 37.53,4.94 "/>
<polygon class="st0" points="55.98,0 58.46,4.94 63.99,5.73 59.99,9.57 60.93,15 55.98,12.44 51.04,15 51.98,9.57 47.98,5.73 
	53.51,4.94 "/>
<polygon class="st0" points="71.99,0 74.47,4.94 80,5.73 76,9.57 76.94,15 71.99,12.44 67.05,15 67.99,9.57 63.99,5.73 69.52,4.94 
	"/>
</svg>
